<svg width="344" height="267" viewBox="0 0 344 267" fill="none" xmlns="http://www.w3.org/2000/svg">
<g clip-path="url(#clip0_52_33)">
<rect width="344" height="267" fill="#F8F8F8"/>
<path opacity="0.4" d="M290.333 102.651C294.886 102.651 298.576 98.8401 298.576 94.139C298.576 89.4379 294.886 85.6269 290.333 85.6269C285.781 85.6269 282.091 89.4379 282.091 94.139C282.091 98.8401 285.781 102.651 290.333 102.651Z" fill="#6C63FF"/>
<path opacity="0.4" d="M116.543 55.8208C123.033 55.8208 128.294 50.3881 128.294 43.6866C128.294 36.985 123.033 31.5524 116.543 31.5524C110.054 31.5524 104.793 36.985 104.793 43.6866C104.793 50.3881 110.054 55.8208 116.543 55.8208Z" fill="#6C63FF"/>
<path opacity="0.4" d="M94.7969 57.9941C99.3492 57.9941 103.04 54.1831 103.04 49.482C103.04 44.7809 99.3492 40.97 94.7969 40.97C90.2446 40.97 86.5542 44.7809 86.5542 49.482C86.5542 54.1831 90.2446 57.9941 94.7969 57.9941Z" fill="#6C63FF"/>
<path d="M297.237 189.326C290.724 196.689 290.487 207.416 290.487 207.416C290.487 207.416 300.81 206.203 307.323 198.84C313.836 191.477 314.073 180.75 314.073 180.75C314.073 180.75 303.75 181.962 297.237 189.326Z" fill="#3F3D56"/>
<path d="M300.916 191.445C298.945 201.208 290.661 207.683 290.661 207.683C290.661 207.683 285.572 198.329 287.543 188.566C289.513 178.803 297.798 172.328 297.798 172.328C297.798 172.328 302.887 181.682 300.916 191.445Z" fill="#FA7268"/>
<path d="M292.457 90.7045V207.088L254.89 239.135H62.7018V117.13L118.779 90.7045H292.457Z" fill="#3F3D56"/>
<path opacity="0.1" d="M292.457 90.7045V91.1709L278.971 100.493L254.89 117.13H62.7018L118.779 90.7045H292.457Z" fill="black"/>
<path opacity="0.1" d="M292.457 90.7045V207.088L254.89 239.135L255.163 116.849L278.971 100.493L292.239 90.7045H292.457Z" fill="black"/>
<path d="M241.824 106.728H124.768L133.48 101.668H245.635L241.824 106.728Z" fill="#2F2E41"/>
<path d="M342.851 245.466C342.851 245.466 345.12 255.265 343.057 255.691C340.994 256.117 330.886 255.98 328.41 256.406C325.934 256.832 320.777 256.117 320.777 254.2C320.777 252.283 326.141 251.005 326.141 251.005C326.141 251.005 333.774 246.744 333.98 246.531C334.186 246.318 342.851 245.466 342.851 245.466Z" fill="#2F2E41"/>
<path d="M340.994 187.732C340.994 187.732 340.375 194.975 340.375 195.614C340.375 196.253 340.994 206.266 340.375 206.692C339.756 207.118 340.788 210.101 340.788 211.166C340.788 212.231 344.089 229.914 343.263 236.731C342.438 243.548 344.501 242.909 343.882 243.548C343.263 244.187 343.263 244.187 343.263 245.466C343.263 246.744 336.662 247.809 336.662 247.809L329.442 200.727L333.155 186.667L340.994 187.732Z" fill="#575A89"/>
<path opacity="0.1" d="M340.994 187.732C340.994 187.732 340.375 194.975 340.375 195.614C340.375 196.253 340.994 206.266 340.375 206.692C339.756 207.118 340.788 210.101 340.788 211.166C340.788 212.231 344.089 229.914 343.263 236.731C342.438 243.548 344.501 242.909 343.882 243.548C343.263 244.187 343.263 244.187 343.263 245.466C343.263 246.744 336.662 247.809 336.662 247.809L329.442 200.727L333.155 186.667L340.994 187.732Z" fill="black"/>
<path d="M339.963 248.448C339.963 248.448 342.026 256.117 339.963 256.544C337.9 256.97 327.791 256.055 325.316 256.482C322.84 256.908 317.683 256.97 317.683 255.052C317.683 253.135 323.046 251.857 323.046 251.857C323.046 251.857 330.679 247.596 330.886 247.383C331.092 247.17 339.963 248.448 339.963 248.448Z" fill="#2F2E41"/>
<path d="M342.851 179.21C342.851 179.21 345.326 185.388 342.438 188.584C339.55 191.78 336.249 198.171 336.249 198.597C336.249 199.023 342.025 241.418 341.2 244.187C340.375 246.957 340.581 248.661 340.788 249.087C340.994 249.513 338.725 251.857 336.249 251.857C333.774 251.857 330.06 249.939 329.648 248.235C329.235 246.531 330.267 231.831 330.06 229.061C329.854 226.292 328.822 222.244 328.41 221.392C327.997 220.54 325.728 219.688 325.315 217.131C324.903 214.575 321.602 181.98 322.634 180.915C323.665 179.849 342.851 179.21 342.851 179.21Z" fill="#575A89"/>
<path d="M327.172 130.211C331.046 130.211 334.186 126.968 334.186 122.968C334.186 118.968 331.046 115.725 327.172 115.725C323.298 115.725 320.158 118.968 320.158 122.968C320.158 126.968 323.298 130.211 327.172 130.211Z" fill="#FFB9B9"/>
<path d="M331.504 126.59C331.504 126.59 330.06 134.472 331.092 135.324C332.123 136.176 323.253 137.455 323.253 137.455C323.253 137.455 322.221 127.016 322.015 125.951C321.809 124.885 331.504 126.59 331.504 126.59Z" fill="#FFB9B9"/>
<path d="M322.015 136.815C322.015 136.815 324.49 129.359 334.599 131.489C334.599 131.489 336.456 132.129 335.837 132.768C335.218 133.407 334.599 133.407 335.424 134.046C336.249 134.685 337.281 134.046 336.662 134.685C336.043 135.324 342.232 139.159 341.819 146.402C341.407 153.646 343.263 163.871 341.819 165.576C340.375 167.28 342.851 174.736 342.438 176.228C342.026 177.719 344.914 179.636 343.676 180.275C342.438 180.915 320.158 184.749 319.539 180.275C318.92 175.802 319.333 178.997 318.714 177.932C318.095 176.867 317.889 174.949 318.301 172.606C318.714 170.263 319.746 164.511 319.333 162.38C318.92 160.25 319.333 142.354 320.571 140.224C321.808 138.094 322.015 136.815 322.015 136.815Z" fill="#FA7268"/>
<path d="M326.347 188.797C326.347 188.797 329.442 200.94 325.522 200.94C321.602 200.94 321.809 188.371 321.809 188.371L326.347 188.797Z" fill="#FFB9B9"/>
<path d="M324.078 122.968C324.078 123.586 324.944 123.978 326.287 124.067H326.289C326.859 124.101 327.43 124.089 327.997 124.033C328.856 123.952 329.21 124.785 329.357 125.884C329.596 127.697 329.262 130.239 329.648 130.637C330.18 131.187 334.06 130.635 335.273 129.389C335.462 129.214 335.588 128.978 335.63 128.72C335.758 127.959 336.121 127.261 336.666 126.732C337.382 125.925 338.401 125.03 339.55 123.607C341.613 121.051 339.55 120.838 338.931 118.92C338.312 117.003 337.281 116.364 337.281 115.086C337.281 113.807 332.536 112.742 328.616 112.955C324.697 113.168 325.522 118.281 325.522 118.281C325.522 118.281 325.289 118.899 325.01 119.696C324.634 120.695 324.327 121.722 324.094 122.768C324.085 122.834 324.079 122.901 324.078 122.968Z" fill="#2F2E41"/>
<path opacity="0.1" d="M324.903 140.011C324.903 140.011 331.917 139.585 332.536 150.237C333.155 160.889 332.948 170.902 332.948 171.115C332.948 171.328 330.06 191.567 327.378 191.567C324.697 191.567 322.634 191.141 322.015 190.075C321.396 189.01 323.665 173.671 323.665 173.671C323.665 173.671 324.697 157.48 323.046 152.367C321.396 147.254 321.19 140.65 324.903 140.011Z" fill="black"/>
<path d="M323.871 138.946C323.871 138.946 330.886 138.52 331.504 149.172C332.123 159.824 331.917 169.837 331.917 170.05C331.917 170.263 329.029 190.501 326.347 190.501C323.665 190.501 321.602 190.075 320.983 189.01C320.364 187.945 322.634 172.606 322.634 172.606C322.634 172.606 323.665 156.415 322.015 151.302C320.364 146.189 320.158 139.585 323.871 138.946Z" fill="#FA7268"/>
<path d="M207.562 34.8097C207.562 34.8097 204.506 25.8657 202.298 28.6717C200.09 31.4776 205.694 36.2126 205.694 36.2126L207.562 34.8097Z" fill="#A0616A"/>
<path d="M221.997 26.0411L220.158 26.7448C220.158 26.7448 219.28 30.7761 219.62 31.4776C219.959 32.1791 220.129 31.653 219.62 33.0559C219.11 34.4589 217.582 38.1417 217.412 38.6678C217.242 39.1939 207.562 35.3358 207.562 33.4067C207.562 33.4067 205.525 35.8619 204.506 36.388C204.506 36.388 215.714 44.8058 217.242 45.858C218.771 46.9103 219.62 46.3841 220.978 45.1565C222.337 43.9289 228.111 33.7574 228.111 33.7574L221.997 26.0411Z" fill="#575A89"/>
<path d="M217.072 88.2979C217.072 88.2979 217.242 90.227 217.582 90.4023C217.922 90.5777 220.469 94.962 217.582 95.8388C214.695 96.7157 212.997 96.365 212.317 96.7157C211.638 97.0664 199.751 97.7679 199.581 95.8388C199.411 93.9098 205.355 93.559 205.355 93.559C205.355 93.559 210.789 89.8762 211.638 87.9471C212.487 86.018 217.072 88.2979 217.072 88.2979Z" fill="#2F2E41"/>
<path d="M251.546 91.8053C251.546 91.8053 255.622 98.9955 254.603 99.8724C253.584 100.749 243.661 103.945 242.206 104.081C240.338 104.257 238.979 102.678 240.508 101.801C242.036 100.925 245.263 97.2418 245.263 96.0142V92.8575L251.546 91.8053Z" fill="#2F2E41"/>
<path d="M255.452 44.8058C255.452 44.8058 259.018 49.3655 253.414 56.7311L244.074 69.0071C244.074 69.0071 249.848 78.4771 250.018 83.3875C250.188 88.2979 251.376 87.2457 251.716 89.3501C252.056 91.4546 253.584 90.4024 252.395 91.9807C251.206 93.559 246.791 94.962 245.433 93.7344C244.965 93.293 244.6 92.7483 244.365 92.141C244.13 91.5338 244.03 90.8795 244.074 90.227C244.074 89.5255 241.697 85.492 241.527 84.2644C241.357 83.0368 235.074 73.0406 235.074 73.0406C235.074 73.0406 233.036 67.078 235.413 63.7459C237.791 60.4139 239.362 55.6881 239.362 55.6881C239.362 55.6881 232.356 64.4474 227.432 66.5519C227.432 66.5519 225.564 66.9026 225.903 67.7795C226.243 68.6563 225.903 69.1824 225.394 70.0593C224.884 70.9362 221.318 81.1077 220.129 83.7383C218.941 86.3688 219.45 87.9472 218.091 88.824C216.733 89.7009 210.619 88.9994 210.619 88.1225C210.619 87.2457 211.468 84.9659 211.978 83.7383C212.487 82.5106 216.563 68.3056 216.223 65.8504C215.884 63.3952 216.393 60.0631 218.94 58.6602C221.488 57.2572 234.394 45.8581 235.074 45.8581C235.753 45.8581 255.452 44.8058 255.452 44.8058Z" fill="#2F2E41"/>
<path d="M221.318 17.2725C225.257 17.2725 228.45 13.9748 228.45 9.90693C228.45 5.83903 225.257 2.54134 221.318 2.54134C217.379 2.54134 214.185 5.83903 214.185 9.90693C214.185 13.9748 217.379 17.2725 221.318 17.2725Z" fill="#A0616A"/>
<path d="M227.092 10.6084C227.092 10.6084 229.3 14.642 232.017 15.1681C234.734 15.6942 224.884 23.7613 224.884 23.7613C224.884 23.7613 222.507 16.0449 220.469 15.6942C218.431 15.3435 227.092 10.6084 227.092 10.6084Z" fill="#A0616A"/>
<path d="M220.129 27.0933C220.129 29.3731 226.752 35.8619 226.752 35.8619L233.036 41.2984C233.036 41.2984 233.205 43.2274 233.885 43.4028C234.564 43.5782 235.413 43.5782 234.734 44.6304C234.055 45.6826 232.356 47.9625 233.885 48.3132C234.345 48.3856 234.81 48.4313 235.276 48.45C235.683 48.4746 236.162 48.4974 236.7 48.5184C237.957 48.564 239.53 48.5938 241.233 48.5815C241.717 48.5798 242.209 48.5739 242.71 48.564C249.131 48.4325 256.569 47.6696 255.961 45.1565C254.943 40.9476 255.622 39.5447 253.414 37.2648C251.206 34.985 247.64 27.0933 247.64 27.0933C247.64 27.0933 240.508 14.6419 234.564 14.6419L233.329 14.307C232.756 14.1509 232.149 14.1851 231.595 14.4048C231.042 14.6245 230.569 15.0185 230.244 15.5311C229.052 17.4058 227.172 20.2223 226.073 21.1307C224.375 22.5336 224.11 21.527 224.11 21.527C224.11 21.527 220.129 24.8135 220.129 27.0933Z" fill="#575A89"/>
<path d="M235.243 53.7497C235.243 53.7497 230.318 61.6414 233.375 63.0444C236.432 64.4474 238.13 54.802 238.13 54.802L235.243 53.7497Z" fill="#A0616A"/>
<path d="M225.981 9.07497C225.707 9.0393 225.62 8.68262 225.574 8.40169C225.328 6.89731 224.242 5.47075 222.783 5.2279C222.226 5.1513 221.659 5.19849 221.12 5.3663C220.349 5.58488 219.625 5.95295 218.987 6.45088C218.674 6.74567 218.313 6.9799 217.92 7.14232C217.653 7.22348 216.516 7.74521 216.251 7.83349C215.667 8.02757 215.184 8.65857 214.583 8.53364C214.008 8.41411 213.789 7.69683 213.697 7.0985C213.486 5.73537 214.242 3.70146 214.993 2.55968C215.563 1.69323 216.528 1.19458 217.492 0.87017C218.622 0.515976 219.783 0.277745 220.958 0.158934C222.545 -0.0345549 224.188 -0.137211 225.708 0.369203C227.228 0.875616 228.613 2.11442 228.897 3.73789C228.956 4.07607 228.967 4.42246 229.039 4.75787C229.216 5.57609 229.74 6.26385 230.046 7.04042C230.267 7.61075 230.369 8.2225 230.347 8.83622C230.324 9.44994 230.178 10.052 229.916 10.6036C229.493 11.483 228.756 12.3281 228.915 13.2964L227.605 12.2293C227.416 12.1182 227.269 11.9434 227.189 11.734C227.11 11.5247 227.102 11.2934 227.167 11.0789L227.358 9.38439C227.424 9.07739 227.394 8.75671 227.273 8.46822C226.691 7.41749 226.437 9.13444 225.981 9.07497Z" fill="#2F2E41"/>
<path opacity="0.1" d="M238.3 41.6491L236.7 48.5184C238.314 48.578 240.448 48.6096 242.71 48.564C243.281 46.7963 243.826 44.9531 244.244 43.2275C245.772 36.9141 243.225 27.2687 241.866 22.709C240.508 18.1494 237.111 16.9218 237.111 16.9218C235.719 17.4275 234.404 18.1361 233.205 19.0262C230.998 20.6046 238.3 41.6491 238.3 41.6491Z" fill="black"/>
<path opacity="0.1" d="M236.941 41.2984L235.276 48.45C235.683 48.4746 236.162 48.4974 236.7 48.5184C237.957 48.564 239.53 48.5938 241.233 48.5815C241.846 46.7033 242.439 44.7216 242.885 42.8767C244.414 36.5634 241.866 26.9179 240.508 22.3583C239.149 17.7986 236.177 22.7967 236.177 22.7967C236.177 22.7967 237.366 19.8154 235.158 21.3937C232.951 22.9721 236.941 41.2984 236.941 41.2984Z" fill="black"/>
<path d="M236.432 16.571C236.432 16.571 239.828 17.7986 241.187 22.3583C242.546 26.9179 245.093 36.5634 243.565 42.8767C242.036 49.1901 238.81 57.0818 238.81 57.0818C238.81 57.0818 235.583 54.6266 234.394 55.1527L237.621 41.2984C237.621 41.2984 230.318 20.2538 232.526 18.6755C233.724 17.7854 235.04 17.0767 236.432 16.571Z" fill="#575A89"/>
<path d="M238.964 104.536L191.98 3.4281L113.419 42.36L142.311 104.536H238.964Z" fill="#F2F2F2"/>
<path d="M176.08 43.1152L134.354 63.7933L135.597 66.4679L177.323 45.7898L176.08 43.1152Z" fill="#3F3D56"/>
<path d="M187.128 66.8891L145.401 87.5672L146.644 90.2418L188.371 69.5637L187.128 66.8891Z" fill="#3F3D56"/>
<path d="M194.716 29.1268L184.357 34.2606L189.328 44.9589L199.688 39.825L194.716 29.1268Z" fill="#3F3D56"/>
<path d="M205.764 52.9007L195.404 58.0345L200.376 68.7328L210.735 63.5989L205.764 52.9007Z" fill="#3F3D56"/>
<path d="M195.43 21.7165L191.164 34.2523L185.413 32.1647L184.625 34.4771L192.609 37.3744L197.669 22.5292L195.43 21.7165Z" fill="#57B894"/>
<path d="M206.478 45.4903L202.211 58.0261L196.46 55.9389L195.673 58.2509L203.656 61.1482L208.717 46.303L206.478 45.4903Z" fill="#57B894"/>
<path d="M4.53424 220.904L25.7612 216.222L21.227 194.301L-2.16699e-05 198.984L4.53424 220.904Z" fill="#F2F2F2"/>
<path d="M25.1709 188.444C25.1709 188.444 17.3742 194.195 19.9731 196.496C22.572 198.796 27.7698 189.594 27.7698 189.594L25.1709 188.444Z" fill="#FFB9B9"/>
<path d="M61.1843 197.263C61.1843 197.263 59.6993 216.433 59.328 219.117C58.9567 221.801 58.5854 245.955 57.8429 248.639C57.1003 251.323 56.3578 257.841 56.3578 257.841H51.9025C51.9025 257.841 52.2738 245.955 51.16 241.354C50.0462 236.753 50.4174 224.101 50.4174 224.101C50.4174 224.101 48.1898 201.48 49.3036 198.413C50.4175 195.346 61.1843 197.263 61.1843 197.263Z" fill="#FFB9B9"/>
<path d="M55.244 256.691C55.244 256.691 57.1003 257.841 57.1003 258.608C57.1003 259.374 56.7291 261.291 57.1003 262.058C57.4716 262.825 60.0705 265.892 58.5854 266.659C57.1003 267.426 50.4174 266.659 50.4174 266.659C50.4174 266.659 50.7887 261.291 51.16 260.908C51.5312 260.525 50.7887 256.691 50.7887 256.691H55.244Z" fill="#2F2E41"/>
<path d="M32.8027 196.793C32.8027 196.793 32.331 216.018 32.4275 218.727C32.5239 221.437 30.4379 245.498 30.9036 248.248C31.3692 250.997 31.4452 257.56 31.4452 257.56L35.8758 258.042C35.8758 258.042 36.7147 246.182 38.29 241.728C39.8653 237.273 40.7821 224.65 40.7821 224.65C40.7821 224.65 45.2968 202.395 44.5009 199.224C43.705 196.053 32.8027 196.793 32.8027 196.793Z" fill="#FFB9B9"/>
<path d="M32.6698 256.536C32.6698 256.536 30.7067 257.479 30.6288 258.242C30.5509 259.004 30.7252 260.951 30.2781 261.673C29.8309 262.396 26.9346 265.164 28.3335 266.088C29.7325 267.011 36.4564 266.973 36.4564 266.973C36.4564 266.973 36.6328 261.595 36.3025 261.173C35.9723 260.752 37.1004 257.019 37.1004 257.019L32.6698 256.536Z" fill="#2F2E41"/>
<path d="M55.9865 168.507C55.9865 168.507 58.9567 168.89 60.0705 175.408C61.1843 181.926 65.2683 198.413 61.9269 199.563C58.5854 200.713 48.5611 203.014 48.1898 202.247C47.8185 201.48 47.076 199.563 47.076 199.563C47.076 199.563 48.1898 203.014 46.7047 203.014C45.2196 203.014 30.74 200.713 31.1113 199.563C31.4825 198.413 32.2251 189.978 32.2251 189.978C32.2251 189.978 34.4527 175.792 36.6803 173.491C37.325 172.852 37.8256 172.074 38.1464 171.213C38.4672 170.351 38.6005 169.428 38.5367 168.507H55.9865Z" fill="#2F2E41"/>
<path d="M61.5556 165.44C61.5556 165.44 56.729 164.29 55.9865 165.823C55.244 167.357 57.8429 169.657 58.9567 169.657C60.0705 169.657 61.9269 168.507 61.9269 168.507L61.5556 165.44Z" fill="#FFB9B9"/>
<path d="M51.5312 132.85C55.2221 132.85 58.2141 129.76 58.2141 125.949C58.2141 122.137 55.2221 119.048 51.5312 119.048C47.8404 119.048 44.8483 122.137 44.8483 125.949C44.8483 129.76 47.8404 132.85 51.5312 132.85Z" fill="#FFB9B9"/>
<path d="M50.4175 130.933C50.4175 130.933 49.3037 136.301 50.0462 136.301C50.7887 136.301 44.4771 139.752 44.4771 139.752L39.6506 138.985L38.1655 136.684C38.1655 136.684 45.9622 131.317 45.9622 128.249C45.9622 125.182 50.4175 130.933 50.4175 130.933Z" fill="#FFB9B9"/>
<path d="M47.076 136.301C47.076 136.301 48.1898 135.534 48.5611 135.534H51.5312C51.9025 135.534 56.7291 136.684 56.7291 136.684L59.6992 153.938C59.6992 153.938 54.5014 162.756 58.2141 169.657C58.2141 169.657 57.1003 168.89 51.9025 169.274C46.7047 169.657 37.4229 170.807 37.0516 170.807C36.6803 170.807 36.6803 167.74 37.0516 166.973C37.4229 166.207 36.6803 166.59 36.6803 164.673C36.6803 162.756 35.5665 159.305 35.5665 159.305L30.3687 139.752C30.3687 139.752 37.0516 135.917 38.1654 136.301C39.2793 136.684 42.6207 137.834 43.3633 137.451C44.1058 137.068 47.076 136.301 47.076 136.301Z" fill="#FA7268"/>
<path d="M55.6152 137.068L56.729 136.684C56.729 136.684 58.9567 136.301 61.5556 138.601C64.1545 140.902 73.8076 147.803 73.8076 147.803C73.8076 147.803 77.5203 150.87 76.4065 154.321C75.2927 157.772 73.4363 166.207 67.8672 165.823C67.8672 165.823 64.5258 170.424 62.6694 169.657C60.8131 168.89 59.328 165.823 60.4418 165.44C61.5556 165.056 64.5258 161.222 64.5258 161.222L60.8131 153.938H59.6993L55.6153 151.637L55.6152 137.068Z" fill="#FA7268"/>
<path d="M33.3389 139.368L30.3687 139.752C30.3687 139.752 27.7698 140.902 28.1411 145.886C28.5124 150.87 25.9135 173.491 27.0273 176.175C27.0273 176.175 23.3146 189.211 24.0571 189.594C24.7997 189.978 29.2549 192.278 28.8837 190.745C28.5124 189.211 32.9677 178.476 32.9677 178.476C32.9677 178.476 38.1655 172.724 35.9378 164.673V158.155L33.3389 139.368Z" fill="#FA7268"/>
<path d="M57.0932 132.621L52.3733 133.683L51.7668 131.283L52 133.767L44.3859 135.48L44.0511 134.155L44.1798 135.526L39.303 136.624L38.2597 126.282C37.1872 122.038 41.1016 117.515 45.211 116.407L47.0341 115.916C50.0523 115.103 55.5386 115.842 56.3263 118.959C54.9476 124.393 52.5972 130.351 57.0932 132.621Z" fill="#2F2E41"/>
</g>
<defs>
<clipPath id="clip0_52_33">
<rect width="344" height="267" fill="white"/>
</clipPath>
</defs>
</svg>
