<svg width="123" height="86" viewBox="0 0 123 86" fill="none" xmlns="http://www.w3.org/2000/svg">
<g clip-path="url(#clip0_65_2)">
<path d="M24.5069 86C38.0417 86 49.0139 85.1625 49.0139 84.1295C49.0139 83.0965 38.0417 82.259 24.5069 82.259C10.9721 82.259 0 83.0965 0 84.1295C0 85.1625 10.9721 86 24.5069 86Z" fill="#E6E6E6"/>
<path d="M18.7326 19.0819C22.9976 17.2589 28.3096 18.4139 33.4974 19.2156C33.5457 18.2448 34.1309 17.0633 33.5179 16.386C32.7732 15.5632 32.8418 14.6987 33.2899 13.8291C34.4358 11.6056 32.794 9.23964 31.1363 7.27237C30.7627 6.82996 30.2905 6.48235 29.7581 6.25778C29.2257 6.03321 28.648 5.93801 28.0721 5.97991L25.0014 6.20033C24.2542 6.25396 23.5411 6.53565 22.9575 7.0077C22.3739 7.47976 21.9477 8.11965 21.7359 8.84177C21.0027 9.84391 20.6103 10.8433 20.8573 11.8374C19.7591 12.5917 19.5746 13.5021 20.0681 14.5285C20.4866 15.1747 20.4821 15.8038 20.049 16.4154C19.4803 17.1952 19.0447 18.0647 18.7601 18.9883L18.7326 19.0819Z" fill="#2F2E41"/>
<path d="M120.085 74.3456H33.1605C32.3875 74.3456 31.6462 74.037 31.0996 73.4877C30.553 72.9384 30.2459 72.1934 30.2459 71.4166C61.7561 67.7364 92.6742 67.7364 123 71.4166C123 72.1934 122.693 72.9384 122.146 73.4877C121.6 74.037 120.858 74.3456 120.085 74.3456Z" fill="#2F2E41"/>
<path d="M123 71.5889L30.2459 71.4166L40.9958 53.2394L41.0472 53.1533V13.0928C41.0472 12.6065 41.1425 12.125 41.3276 11.6758C41.5127 11.2265 41.7841 10.8184 42.1263 10.4745C42.4684 10.1307 42.8746 9.85796 43.3216 9.6719C43.7687 9.48584 44.2478 9.3901 44.7317 9.39014H108C108.484 9.3901 108.963 9.48584 109.41 9.6719C109.857 9.85796 110.263 10.1307 110.605 10.4745C110.947 10.8184 111.219 11.2265 111.404 11.6758C111.589 12.125 111.684 12.6065 111.684 13.0928V53.4289L123 71.5889Z" fill="#3F3D56"/>
<path d="M44.6477 11.9745C44.3295 11.9749 44.0244 12.1021 43.7994 12.3282C43.5744 12.5543 43.4479 12.8609 43.4475 13.1806V49.7073C43.4479 50.0271 43.5744 50.3336 43.7994 50.5597C44.0244 50.7858 44.3295 50.913 44.6477 50.9134H108.598C108.916 50.913 109.221 50.7858 109.446 50.5597C109.671 50.3336 109.798 50.0271 109.798 49.7073V13.1806C109.798 12.8609 109.671 12.5543 109.446 12.3282C109.221 12.1021 108.916 11.9749 108.598 11.9745H44.6477Z" fill="white"/>
<path d="M44.9156 55.7377C44.8173 55.7378 44.7211 55.7663 44.6383 55.8196C44.5555 55.8729 44.4896 55.9488 44.4483 56.0385L41.136 63.2749C41.0999 63.3537 41.0841 63.4403 41.0901 63.5268C41.0961 63.6132 41.1236 63.6968 41.1701 63.7698C41.2166 63.8428 41.2807 63.9029 41.3564 63.9445C41.432 63.9861 41.5169 64.0079 41.6032 64.0079H111.261C111.348 64.0079 111.434 63.9853 111.511 63.9424C111.588 63.8995 111.652 63.8377 111.698 63.7627C111.744 63.6877 111.77 63.6022 111.774 63.5142C111.778 63.4262 111.76 63.3386 111.721 63.2598L108.12 56.0234C108.078 55.9374 108.012 55.865 107.931 55.8145C107.849 55.764 107.756 55.7374 107.66 55.7377H44.9156Z" fill="#2F2E41"/>
<path d="M76.3658 11.3715C76.7919 11.3715 77.1373 11.0244 77.1373 10.5962C77.1373 10.168 76.7919 9.82086 76.3658 9.82086C75.9397 9.82086 75.5942 10.168 75.5942 10.5962C75.5942 11.0244 75.9397 11.3715 76.3658 11.3715Z" fill="white"/>
<path d="M69.519 65.3862C69.406 65.3864 69.2961 65.4239 69.2063 65.493C69.1166 65.5621 69.052 65.659 69.0224 65.7687L68.1915 68.87C68.171 68.9466 68.1683 69.0269 68.1836 69.1048C68.1989 69.1826 68.2319 69.2559 68.2799 69.3188C68.3279 69.3818 68.3897 69.4328 68.4605 69.468C68.5313 69.5031 68.6092 69.5213 68.6881 69.5213H84.4895C84.5715 69.5213 84.6523 69.5016 84.7252 69.4639C84.7981 69.4261 84.8609 69.3714 84.9085 69.3042C84.956 69.2371 84.9869 69.1595 84.9986 69.0779C85.0102 68.9964 85.0023 68.9132 84.9754 68.8353L83.9072 65.734C83.8722 65.6325 83.8066 65.5444 83.7195 65.4821C83.6324 65.4198 83.5281 65.3863 83.4212 65.3862H69.519Z" fill="#2F2E41"/>
<path d="M111.684 52.5502V53.2393H40.9958L41.049 53.1533V52.5502H111.684Z" fill="#2F2E41"/>
<path d="M109.713 24.1214C116.341 24.1214 121.714 18.7216 121.714 12.0607C121.714 5.39976 116.341 0 109.713 0C103.084 0 97.7112 5.39976 97.7112 12.0607C97.7112 18.7216 103.084 24.1214 109.713 24.1214Z" fill="#FA7268"/>
<path d="M114.685 17.3157H104.741C104.559 17.3155 104.384 17.2429 104.256 17.1136C104.127 16.9844 104.055 16.8092 104.055 16.6265V10.5962C104.055 10.4134 104.127 10.2383 104.256 10.1091C104.384 9.97985 104.559 9.90718 104.741 9.90698H114.685C114.867 9.90718 115.041 9.97985 115.169 10.1091C115.298 10.2383 115.37 10.4134 115.37 10.5962V16.6265C115.37 16.8092 115.298 16.9844 115.169 17.1136C115.041 17.2429 114.867 17.3155 114.685 17.3157ZM104.741 10.5962V16.6265H114.685L114.685 10.5962L104.741 10.5962Z" fill="white"/>
<path d="M112.799 10.5962H106.627V7.83947C106.627 5.84276 107.925 4.39355 109.713 4.39355C111.501 4.39355 112.799 5.84276 112.799 7.83947L112.799 10.5962ZM107.312 9.90702H112.113V7.83947C112.113 6.21637 111.126 5.08274 109.713 5.08274C108.299 5.08274 107.312 6.21638 107.312 7.83947L107.312 9.90702Z" fill="white"/>
<path d="M109.713 14.1282C110.091 14.1282 110.398 13.8197 110.398 13.4391C110.398 13.0584 110.091 12.7499 109.713 12.7499C109.334 12.7499 109.027 13.0584 109.027 13.4391C109.027 13.8197 109.334 14.1282 109.713 14.1282Z" fill="white"/>
<path d="M101.335 38.5239H51.9113C51.6686 38.5236 51.436 38.4266 51.2644 38.2542C51.0928 38.0818 50.9963 37.848 50.996 37.6041V25.2838C50.9963 25.0399 51.0928 24.8061 51.2644 24.6337C51.436 24.4613 51.6686 24.3643 51.9113 24.364H101.335C101.577 24.3643 101.81 24.4613 101.981 24.6337C102.153 24.8061 102.25 25.0399 102.25 25.2838V37.6041C102.25 37.848 102.153 38.0818 101.981 38.2542C101.81 38.4266 101.577 38.5236 101.335 38.5239ZM51.9113 24.7319C51.7657 24.7321 51.6261 24.7903 51.5231 24.8937C51.4202 24.9972 51.3623 25.1375 51.3621 25.2838V37.6041C51.3623 37.7504 51.4202 37.8907 51.5231 37.9942C51.6261 38.0976 51.7657 38.1558 51.9113 38.156H101.335C101.48 38.1558 101.62 38.0976 101.723 37.9942C101.826 37.8907 101.884 37.7504 101.884 37.6041V25.2838C101.884 25.1375 101.826 24.9972 101.723 24.8937C101.62 24.7903 101.48 24.7321 101.335 24.7319L51.9113 24.7319Z" fill="#E6E6E6"/>
<path d="M59.5907 34.7179C61.6497 34.7179 63.3189 33.0404 63.3189 30.9712C63.3189 28.902 61.6497 27.2246 59.5907 27.2246C57.5316 27.2246 55.8624 28.902 55.8624 30.9712C55.8624 33.0404 57.5316 34.7179 59.5907 34.7179Z" fill="#E6E6E6"/>
<path d="M68.2011 28.4735C68.1194 28.4734 68.0385 28.4894 67.963 28.5208C67.8875 28.5521 67.8189 28.5981 67.7611 28.6561C67.7033 28.7141 67.6574 28.7829 67.6261 28.8588C67.5948 28.9346 67.5787 29.0159 67.5787 29.0979C67.5787 29.18 67.5948 29.2613 67.6261 29.3371C67.6574 29.413 67.7033 29.4818 67.7611 29.5398C67.8189 29.5978 67.8875 29.6438 67.963 29.6751C68.0385 29.7065 68.1194 29.7225 68.2011 29.7224H97.4943C97.6591 29.7224 97.8171 29.6566 97.9336 29.5395C98.0502 29.4224 98.1157 29.2636 98.1157 29.0979C98.1157 28.9323 98.0502 28.7735 97.9336 28.6564C97.8171 28.5393 97.6591 28.4735 97.4943 28.4735H68.2011Z" fill="#E6E6E6"/>
<path d="M68.2011 32.2201C68.0363 32.2201 67.8783 32.2859 67.7617 32.403C67.6452 32.5201 67.5797 32.6789 67.5797 32.8445C67.5797 33.0101 67.6452 33.169 67.7617 33.2861C67.8783 33.4032 68.0363 33.469 68.2011 33.469H80.806C80.9708 33.469 81.1289 33.4032 81.2454 33.2861C81.3619 33.169 81.4274 33.0101 81.4274 32.8445C81.4274 32.6789 81.3619 32.5201 81.2454 32.403C81.1289 32.2859 80.9708 32.2201 80.806 32.2201H68.2011Z" fill="#E6E6E6"/>
<path d="M40.8742 32.4727L31.7379 37.354L31.6222 33.2863C34.6042 32.786 37.4413 31.915 40.0646 30.497L41.0202 28.1246C41.1243 27.8661 41.2935 27.6392 41.5112 27.4663C41.7289 27.2933 41.9877 27.1803 42.262 27.1382C42.5363 27.0961 42.8168 27.1264 43.076 27.2261C43.3351 27.3259 43.564 27.4917 43.7402 27.7072C43.9979 28.0225 44.1267 28.4244 44.1006 28.8316C44.0744 29.2388 43.8952 29.6208 43.5993 29.9001L40.8742 32.4727Z" fill="#FFB8B8"/>
<path d="M18.5505 60.6553C18.4839 60.4097 18.4697 60.1526 18.509 59.9011C18.5483 59.6495 18.6401 59.4092 18.7784 59.1958L20.7854 56.1006C21.2601 55.3685 21.9885 54.8396 22.8292 54.6167C23.67 54.3938 24.5632 54.4927 25.3355 54.8942C24.492 56.3371 24.6096 57.6028 25.6268 58.7028C24.0477 59.4774 22.5883 60.4773 21.2937 61.6713C21.0574 61.8333 20.7859 61.9361 20.5021 61.9712C20.2182 62.0064 19.93 61.9729 19.6617 61.8735C19.3933 61.7741 19.1524 61.6116 18.9591 61.3997C18.7659 61.1879 18.6258 60.9326 18.5505 60.6553Z" fill="#2F2E41"/>
<path d="M41.2903 56.6081C40.9866 57.1168 40.5579 57.5385 40.0453 57.8327C39.5327 58.1269 38.9535 58.2838 38.3633 58.2883L25.0302 58.3898L24.452 55.0194L30.3501 53.2761L25.3772 49.4409L30.8127 43.0488L40.6852 52.2958C41.2623 52.8363 41.6372 53.5594 41.7473 54.3444C41.8574 55.1293 41.6961 55.9284 41.2903 56.6081Z" fill="#2F2E41"/>
<path d="M22.9485 79.6581H19.826C17.0224 60.3458 14.1686 40.9795 22.6016 33.7512L32.5474 35.3782L31.2753 43.8623L25.7241 50.2544L22.9485 79.6581Z" fill="#2F2E41"/>
<path d="M25.6934 84.0329C25.4489 84.0999 25.1931 84.1141 24.9428 84.0747C24.6925 84.0352 24.4534 83.943 24.2411 83.804L20.8507 83.346C20.1221 82.869 19.5959 82.1371 19.374 81.2922C19.1521 80.4473 19.2505 79.5497 19.65 78.7736C21.0858 79.6211 22.3453 79.5029 23.4398 78.4806C24.2131 80.0498 25.4873 79.9541 26.7043 81.2762C26.8654 81.5137 26.9677 81.7864 27.0027 82.0717C27.0377 82.357 27.0044 82.6465 26.9055 82.9162C26.8066 83.1859 26.645 83.428 26.4341 83.6222C26.2233 83.8165 25.9693 83.9573 25.6934 84.0329Z" fill="#2F2E41"/>
<path d="M30.3501 20.8507L24.5676 19.4561C25.528 17.4806 25.6071 15.2824 25.1458 12.9478L29.0779 12.8315C29.2011 15.7347 29.5739 18.4471 30.3501 20.8507Z" fill="#FFB8B8"/>
<path d="M31.9393 38.8775C27.7299 41.7601 24.7556 38.9762 22.4859 34.6809C22.8013 32.0526 22.2906 28.9073 21.3448 25.4896C20.9242 23.9822 21.0813 22.3711 21.785 20.9744C22.4887 19.5776 23.6879 18.4968 25.1459 17.9452L30.1188 20.0372C34.3413 23.496 35.1725 27.2427 33.5882 31.1943L31.9393 38.8775Z" fill="#FA7268"/>
<path d="M19.826 23.7562L15.2 26.1969L23.4111 31.0781L24.5536 33.9102C24.6299 34.0993 24.667 34.3019 24.6628 34.5059C24.6586 34.7098 24.6131 34.9107 24.5291 35.0964C24.445 35.2821 24.3243 35.4486 24.1741 35.5858C24.0239 35.7231 23.8476 35.8281 23.6557 35.8946C23.4375 35.9702 23.205 35.994 22.9762 35.9642C22.7474 35.9344 22.5285 35.8518 22.3368 35.7228C22.1451 35.5938 21.9857 35.4219 21.8711 35.2207C21.7565 35.0194 21.6898 34.7943 21.6763 34.5628L21.5607 32.589L11.1245 29.128C10.7729 29.0114 10.4523 28.8159 10.187 28.5564C9.92167 28.2968 9.71862 27.98 9.5932 27.6298C9.41038 27.1195 9.40108 26.5627 9.56674 26.0465C9.7324 25.5303 10.0637 25.0838 10.5087 24.777L18.9008 18.9912L19.826 23.7562Z" fill="#FFB8B8"/>
<path d="M24.452 24.2211C22.5226 23.3714 20.7683 24.2944 18.5539 25.0346L18.2069 18.875C20.4057 17.6972 22.5022 17.3797 24.452 18.2939L24.452 24.2211Z" fill="#FA7268"/>
<path d="M26.7599 15.8826C28.7988 15.8826 30.4517 14.2215 30.4517 12.1725C30.4517 10.1235 28.7988 8.4624 26.7599 8.4624C24.7209 8.4624 23.068 10.1235 23.068 12.1725C23.068 14.2215 24.7209 15.8826 26.7599 15.8826Z" fill="#FFB8B8"/>
<path d="M31.1766 11.7044C27.5213 12.0642 24.736 11.4634 22.9559 9.75286V8.37531H30.8663L31.1766 11.7044Z" fill="#2F2E41"/>
</g>
<defs>
<clipPath id="clip0_65_2">
<rect width="123" height="86" fill="white"/>
</clipPath>
</defs>
</svg>
