<svg width="123" height="89" viewBox="0 0 123 89" fill="none" xmlns="http://www.w3.org/2000/svg">
<g clip-path="url(#clip0_65_31)">
<path d="M102.938 72.959H20.0617C18.2893 72.959 16.8472 71.2592 16.8472 69.1699V57.4119H106.153V69.1699C106.153 71.2592 104.711 72.959 102.938 72.959Z" fill="#E6E6E6"/>
<path d="M72.2262 70.9922H51.0916V88.7871H72.2262V70.9922Z" fill="#E6E6E6"/>
<path d="M73.4974 86.5392H49.8204V88.787H73.4974V86.5392Z" fill="#E6E6E6"/>
<path d="M106.073 62.3757H16.8472V2.60027C16.8472 1.16651 17.8368 0 19.0531 0H103.867C105.084 0 106.073 1.16651 106.073 2.60027V62.3757Z" fill="#3F3D56"/>
<path d="M61.6589 2.15409C62.0099 2.15409 62.2945 1.81864 62.2945 1.40484C62.2945 0.991033 62.0099 0.655579 61.6589 0.655579C61.3078 0.655579 61.0233 0.991033 61.0233 1.40484C61.0233 1.81864 61.3078 2.15409 61.6589 2.15409Z" fill="white"/>
<path d="M103.928 2.71606H18.9131V59.0977H103.928V2.71606Z" fill="white"/>
<path d="M93.9782 45.3134C97.9814 45.3134 101.227 41.488 101.227 36.7692C101.227 32.0503 97.9814 28.225 93.9782 28.225C89.9751 28.225 86.7299 32.0503 86.7299 36.7692C86.7299 41.488 89.9751 45.3134 93.9782 45.3134Z" fill="#FA7268"/>
<path d="M123 88.8427C123 88.9296 122.94 89 122.867 89H0V88.6853H122.867C122.94 88.6853 123 88.7558 123 88.8427Z" fill="#E6E6E6"/>
<path d="M20.8092 35.5266L19.8934 39.3052L23.5569 39.5751L23.3279 35.1217L20.8092 35.5266Z" fill="#FFB6B6"/>
<path d="M36.0288 50.9515C36.8982 51.3013 37.756 51.0562 37.9448 50.404C38.1336 49.7517 37.5819 48.9396 36.7122 48.5898C36.3664 48.4444 35.9961 48.3988 35.6323 48.4567L31.9329 47.0292L31.4016 49.0898L35.105 50.2783C35.3629 50.5865 35.6797 50.8173 36.0288 50.9515Z" fill="#FFB6B6"/>
<path d="M23.7532 38.4672C23.7532 38.4672 21.46 41.7192 22.7866 43.0647C24.1133 44.4102 30.0377 49.3912 30.0377 49.3912L32.3474 49.8151L32.9381 47.1834L27.7228 42.6281L23.7532 38.4672Z" fill="#FA7268"/>
<path d="M29.8293 73.0864L31.1037 78.6537L33.1278 78.2118L32.678 72.4678L29.8293 73.0864Z" fill="#FFB6B6"/>
<path d="M31.4035 78.3002L30.6539 78.4769L30.0541 80.8629C30.0541 80.8629 31.0287 81.3047 31.0287 82.1884C31.0287 83.0721 31.4035 83.6907 32.9029 83.6023C34.4022 83.5139 34.5522 83.6023 34.5522 82.8954C34.5522 82.1884 33.4276 78.4769 33.4276 78.4769C33.4276 78.4769 33.5026 76.9746 32.603 77.063C31.7034 77.1514 31.4035 78.3002 31.4035 78.3002Z" fill="#2F2E41"/>
<path d="M22.9761 72.9998L23.063 78.7653L25.1175 78.9173L25.8669 73.2169L22.9761 72.9998Z" fill="#FFB6B6"/>
<path d="M23.4269 78.5084L22.6633 78.4648L21.5891 80.6071C21.5891 80.6071 22.4431 81.3151 22.2607 82.1723C22.0783 83.0294 22.3142 83.7369 23.7867 84.0812C25.2592 84.4256 25.3864 84.5543 25.5323 83.8686C25.6783 83.1829 25.3537 79.2604 25.3537 79.2604C25.3537 79.2604 25.7365 77.8248 24.8457 77.6525C23.9549 77.4802 23.4269 78.5084 23.4269 78.5084Z" fill="#2F2E41"/>
<path d="M23.8319 38.5342L19.7837 38.1807L18.8841 39.5063C18.8841 39.5063 18.4343 48.4315 18.7342 49.3152C19.0341 50.1989 18.8092 55.2359 18.8092 55.2359L29.0144 54.3964L26.7556 47.9897L26.8306 44.2782L24.8065 39.7714L23.8319 38.5342Z" fill="#FA7268"/>
<path d="M19.2589 53.3802C19.2589 53.3802 17.6096 56.208 18.2094 57.7103C18.8091 59.2125 22.8772 67.9352 22.8772 67.9352L22.3524 76.0652L25.9508 75.7117L26.5505 66.9632L24.0568 59.8311L24.5066 59.0358L28.2549 64.4263L29.6043 73.7934L33.2027 73.2632L31.2536 59.566L28.9757 54.2867L19.2589 53.3802Z" fill="#2F2E41"/>
<path d="M18.9066 33.1225C19.6742 33.1225 20.2964 32.389 20.2964 31.4842C20.2964 30.5794 19.6742 29.8459 18.9066 29.8459C18.139 29.8459 17.5167 30.5794 17.5167 31.4842C17.5167 32.389 18.139 33.1225 18.9066 33.1225Z" fill="#2F2E41"/>
<path d="M22.1163 37.5579C23.7879 37.5579 25.143 35.9605 25.143 33.99C25.143 32.0195 23.7879 30.4221 22.1163 30.4221C20.4446 30.4221 19.0895 32.0195 19.0895 33.99C19.0895 35.9605 20.4446 37.5579 22.1163 37.5579Z" fill="#FFB6B6"/>
<path d="M21.1566 37.9015C20.8349 38.1024 19.9297 37.3649 19.6058 36.3767C19.3975 35.7409 18.8909 35.8467 18.5677 35.0539C18.3793 34.5919 18.9418 34.14 18.849 33.7406C18.6809 33.0168 18.8916 32.3693 18.9185 32.29C19.1503 31.6053 19.4919 31.6212 19.7674 30.8242C19.9333 30.3444 19.8269 30.2882 19.9663 30.0427C20.3686 29.3342 21.5361 29.3073 22.3595 29.6423C22.6444 29.7582 23.3307 29.137 23.8878 29.5871C24.5442 30.1173 24.9809 31.6457 24.8805 31.9257C24.8194 32.0959 24.4796 31.9225 23.7728 32.0535C23.1184 32.1747 23.9821 32.751 23.2457 32.9475C22.3749 33.1798 22.1125 32.9678 21.8712 33.2925C21.6161 33.6358 21.5689 34.3306 21.8017 34.7431C21.9172 34.9477 22.0662 35.02 22.0475 35.1624C22.0134 35.4225 21.8175 35.2811 21.7532 35.557C21.6785 35.8779 22.2987 36.2986 22.2448 36.3956C22.234 36.4152 22.1875 36.4364 21.5818 36.1612C21.34 36.0514 21.2467 35.9565 21.2196 35.9916C21.1757 36.0484 20.9582 36.6182 21.2053 36.8605C21.5898 37.2377 21.3233 37.3874 21.4986 37.6828C21.6795 37.9874 21.361 37.7739 21.1566 37.9015Z" fill="#2F2E41"/>
<path d="M21.8653 58.5162C22.3484 59.4372 23.1431 59.89 23.6403 59.5276C24.1375 59.1651 24.1489 58.1248 23.6656 57.2035C23.4768 56.8323 23.2153 56.5199 22.9031 56.2922L20.8146 52.4202L19.294 53.6142L21.5143 57.3046C21.5476 57.7357 21.6679 58.1512 21.8653 58.5162Z" fill="#FFB6B6"/>
<path d="M19.109 39.683C19.109 39.683 15.5856 40.4783 15.8854 42.5108C16.1853 44.5433 18.0781 52.8259 18.0781 52.8259L19.6338 54.8824L21.5079 53.2918L19.9336 45.8688L19.109 39.683Z" fill="#FA7268"/>
<path d="M102.332 41.3803C102.193 41.1049 101.594 41.3998 101.484 41.1499C101.374 40.9008 101.931 40.5214 102.249 39.6545C102.306 39.4982 102.668 38.5131 102.4 38.2092C101.893 37.633 99.5711 40.0107 98.7585 39.2326C98.5802 39.0618 98.4556 38.7209 97.9159 38.1675C97.7012 37.9473 97.5714 37.8479 97.4458 37.8849C97.2675 37.9374 97.2534 38.2186 97.0622 38.7717C96.7755 39.601 96.6059 39.5509 96.4389 40.2126C96.3149 40.7039 96.3432 40.9895 96.1973 41.0451C95.9908 41.1238 95.8007 40.6028 95.539 40.6494C95.272 40.6971 95.1105 41.3037 95.0595 41.7579C94.9638 42.6103 95.2294 43.1727 95.3766 43.7641C95.5365 44.4068 95.6314 45.3842 95.2621 46.7679L91.6061 58.91C92.4133 56.4184 94.7502 49.5885 95.7322 47.0505C96.0157 46.3178 96.3287 45.5747 96.9714 45.2814C97.5902 44.999 98.44 45.1676 99.5234 44.8599C99.6499 44.824 100.001 44.7187 100.045 44.4752C100.082 44.274 99.8753 44.1616 99.907 43.9731C99.9496 43.7203 100.356 43.7172 100.855 43.4255C101.207 43.2198 101.426 42.9752 101.615 42.7648C101.671 42.7014 102.516 41.7469 102.332 41.3803Z" fill="#E6E6E6"/>
<path d="M87.9483 47.7724C87.7937 47.773 87.7435 48.2049 87.6076 48.1966C87.4723 48.1882 87.475 47.7565 87.2058 47.3224C87.1573 47.2441 86.8515 46.7506 86.6477 46.8178C86.2614 46.9451 86.5815 48.9744 86.023 49.22C85.9005 49.2739 85.7226 49.2476 85.3365 49.4002C85.1828 49.4609 85.104 49.5073 85.0831 49.5906C85.0535 49.7089 85.1666 49.7983 85.3417 50.0684C85.6043 50.4736 85.5345 50.5573 85.7618 50.8448C85.9306 51.0583 86.0576 51.1243 86.0387 51.2248C86.0119 51.367 85.7401 51.3266 85.6841 51.4915C85.6268 51.6597 85.8328 51.9281 86.0072 52.0887C86.3345 52.39 86.6453 52.3986 86.934 52.4841C87.2478 52.577 87.6821 52.8041 88.1517 53.4171L92.1524 59.0356C91.3479 57.8497 89.1784 54.527 88.405 53.2266C88.1817 52.8512 87.9626 52.4556 88.0259 51.9992C88.0869 51.5597 88.4023 51.1167 88.5868 50.4011C88.6083 50.3176 88.6658 50.084 88.5772 49.9882C88.5039 49.909 88.3976 49.9961 88.3282 49.9234C88.2352 49.8258 88.3511 49.5899 88.3737 49.217C88.3896 48.954 88.351 48.7566 88.3178 48.5868C88.3078 48.5356 88.1542 47.7714 87.9483 47.7724Z" fill="#E6E6E6"/>
<path d="M91.0335 48.5887L90.9404 47.6083L90.9829 47.534C91.1799 47.1903 91.2803 46.8546 91.2815 46.536C91.2817 46.4854 91.2797 46.4347 91.2777 46.3831C91.2697 46.1786 91.2597 45.9244 91.3721 45.628C91.4352 45.4628 91.6123 45.0803 91.8785 45.1276C91.9502 45.1395 92.0045 45.1783 92.0456 45.2237C92.0516 45.2124 92.0579 45.201 92.0645 45.1887C92.1474 45.0396 92.2131 44.9757 92.2763 44.9141C92.3249 44.8668 92.3751 44.818 92.4539 44.7025C92.4884 44.6519 92.5153 44.6074 92.538 44.57C92.6069 44.4568 92.6968 44.3219 92.8555 44.3242C93.0249 44.3337 93.1137 44.4989 93.1725 44.6083C93.2776 44.8033 93.3252 44.9439 93.3567 45.0372C93.3681 45.0713 93.3812 45.1096 93.3878 45.1215C93.4424 45.2162 93.8864 45.1276 94.0537 45.0954C94.4294 45.0216 94.7545 44.9577 94.8884 45.237C94.9844 45.4368 94.9131 45.7009 94.6702 46.0432C94.5944 46.1497 94.5139 46.2307 94.4424 46.2941C94.5017 46.3358 94.5547 46.3997 94.5762 46.5C94.6268 46.7377 94.4535 46.9758 94.0613 47.2087C93.9639 47.267 93.8328 47.3446 93.6491 47.382C93.5625 47.3995 93.4846 47.4038 93.4179 47.4062C93.4165 47.4516 93.4075 47.5008 93.384 47.5515C93.3151 47.7006 93.1717 47.7716 92.9557 47.7546C92.7179 47.7399 92.5221 47.6864 92.3494 47.6395C92.1986 47.5988 92.0687 47.5643 91.9667 47.5723C91.7775 47.5903 91.6317 47.7688 91.4607 48.0003L91.0335 48.5887Z" fill="#E6E6E6"/>
<path d="M91.4658 42.7512L90.6849 43.1062L90.6131 43.0765C90.2811 42.939 89.9802 42.9097 89.7184 42.9891C89.6768 43.0018 89.6358 43.0169 89.5939 43.0323C89.4281 43.0933 89.2221 43.1692 88.9504 43.1162C88.7988 43.0862 88.44 42.9813 88.4113 42.6657C88.4028 42.5809 88.4209 42.5093 88.4478 42.4508C88.4369 42.4468 88.426 42.4426 88.4142 42.4382C88.2708 42.3814 88.2017 42.3228 88.1352 42.2663C88.084 42.2229 88.0313 42.178 87.9165 42.1175C87.8662 42.091 87.8228 42.0716 87.7864 42.0552C87.6761 42.0054 87.5425 41.937 87.5042 41.7555C87.469 41.5599 87.5821 41.4168 87.6569 41.322C87.7903 41.1527 87.8936 41.0628 87.9622 41.0032C87.9872 40.9815 88.0154 40.9569 88.0234 40.9463C88.0873 40.86 87.902 40.3763 87.8332 40.1937C87.6773 39.784 87.5423 39.4296 87.7376 39.206C87.8772 39.0459 88.112 39.0602 88.4545 39.2504C88.5611 39.3097 88.648 39.381 88.7182 39.4464C88.7373 39.3683 88.7763 39.2916 88.8532 39.2417C89.0354 39.1237 89.2748 39.2609 89.5654 39.649C89.6379 39.7452 89.7349 39.8751 89.8121 40.0751C89.8485 40.1693 89.8717 40.2571 89.8906 40.3325C89.9282 40.3226 89.9709 40.3204 90.0185 40.3343C90.1583 40.375 90.2529 40.5205 90.2938 40.7712C90.342 41.046 90.3478 41.2828 90.3531 41.4916C90.358 41.6739 90.3626 41.8308 90.395 41.9451C90.4578 42.1562 90.6412 42.2771 90.8746 42.4135L91.4658 42.7512Z" fill="#E6E6E6"/>
<path d="M91.0335 39.8628L90.9404 38.8824L90.9829 38.8081C91.1799 38.4644 91.2803 38.1287 91.2815 37.8101C91.2817 37.7595 91.2797 37.7088 91.2777 37.6572C91.2697 37.4527 91.2597 37.1985 91.3721 36.9021C91.4352 36.7369 91.6123 36.3544 91.8785 36.4017C91.9502 36.4136 92.0045 36.4524 92.0456 36.4978C92.0516 36.4865 92.0579 36.4751 92.0645 36.4628C92.1474 36.3137 92.2131 36.2498 92.2763 36.1882C92.3249 36.1409 92.3751 36.0921 92.4539 35.9766C92.4884 35.926 92.5153 35.8815 92.538 35.8441C92.6069 35.7309 92.6968 35.596 92.8555 35.5984C93.0249 35.6078 93.1137 35.773 93.1725 35.8824C93.2776 36.0774 93.3252 36.2181 93.3567 36.3113C93.3681 36.3454 93.3812 36.3837 93.3878 36.3956C93.4424 36.4903 93.8864 36.4017 94.0537 36.3695C94.4294 36.2957 94.7545 36.2318 94.8884 36.5111C94.9844 36.7109 94.9131 36.975 94.6702 37.3173C94.5944 37.4238 94.5139 37.5048 94.4424 37.5682C94.5017 37.6099 94.5547 37.6738 94.5762 37.7742C94.6268 38.0118 94.4535 38.2499 94.0613 38.4829C93.9639 38.5411 93.8328 38.6187 93.6491 38.6561C93.5625 38.6736 93.4846 38.6779 93.4179 38.6803C93.4165 38.7257 93.4075 38.775 93.384 38.8256C93.3151 38.9747 93.1717 39.0457 92.9557 39.0287C92.7179 39.014 92.5221 38.9605 92.3494 38.9137C92.1986 38.8729 92.0687 38.8384 91.9667 38.8464C91.7775 38.8644 91.6317 39.0429 91.4607 39.2744L91.0335 39.8628Z" fill="#E6E6E6"/>
<path d="M91.8846 58.894L91.7103 58.7652L91.5071 58.7927C91.5038 58.7704 91.4928 58.7193 91.4761 58.6393C91.3852 58.2009 91.1079 56.8668 90.8765 54.7658C90.7151 53.2992 90.6237 51.7914 90.6048 50.2836C90.5859 48.7734 90.6466 47.6301 90.6952 46.7112C90.7319 46.0182 90.7765 45.3582 90.8203 44.7153C90.9368 42.9978 91.0466 41.3754 90.9649 39.5793C90.9468 39.1783 90.9088 38.3437 90.4952 37.4556C90.2552 36.9405 89.9247 36.4832 89.5126 36.0969L89.7689 35.7172C90.2237 36.1442 90.5894 36.6508 90.8558 37.2227C91.3145 38.2074 91.3558 39.1168 91.3757 39.5537C91.4589 41.3816 91.3478 43.0196 91.2301 44.7537C91.1868 45.3942 91.1422 46.0513 91.1056 46.7415C91.0574 47.6519 90.9974 48.7852 91.0161 50.276C91.0346 51.7658 91.1249 53.2552 91.2842 54.7033C91.5127 56.7778 91.786 58.092 91.8757 58.5238C91.9235 58.7543 91.9336 58.8026 91.8846 58.894Z" fill="#E6E6E6"/>
<path d="M88.7584 36.8671C88.7415 36.8671 88.7245 36.8666 88.7072 36.8652C88.357 36.843 88.0327 36.5959 87.7431 36.131C87.6074 35.9122 87.5379 35.6628 87.3993 35.1652C87.3779 35.0885 87.2734 34.6994 87.21 34.1639C87.1684 33.8141 87.1736 33.6678 87.2325 33.5386C87.2977 33.3946 87.4034 33.2943 87.5222 33.2266C87.517 33.1802 87.5212 33.1324 87.5383 33.0836C87.6084 32.8815 87.7947 32.908 87.8955 32.9208C87.9465 32.9283 88.0102 32.9383 88.0789 32.934C88.1869 32.9279 88.2449 32.89 88.3329 32.8332C88.417 32.7787 88.5217 32.711 88.6769 32.6736C88.9829 32.5984 89.2393 32.7006 89.3239 32.7342C89.7687 32.9089 89.9879 33.3165 90.2418 33.7885C90.2924 33.8832 90.4661 34.2278 90.5807 34.7003C90.6635 35.0412 90.6518 35.1927 90.6269 35.3053C90.5763 35.5368 90.4568 35.6694 90.1534 35.9619C89.8365 36.2682 89.6775 36.4216 89.5409 36.5149C89.2231 36.7312 89.0235 36.8671 88.7584 36.8671Z" fill="#E6E6E6"/>
<path d="M70.6155 50.3319H38.3469C37.0479 50.3319 35.9911 49.086 35.9911 47.5549V18.7924C35.9911 17.2612 37.0479 16.0154 38.3469 16.0154H70.6155C71.9145 16.0154 72.9713 17.2612 72.9713 18.7924V47.5549C72.9713 49.086 71.9145 50.3319 70.6155 50.3319Z" fill="white"/>
<path d="M70.6155 50.3319H38.3469C37.0479 50.3319 35.9911 49.086 35.9911 47.5549V18.7924C35.9911 17.2612 37.0479 16.0154 38.3469 16.0154H70.6155C71.9145 16.0154 72.9713 17.2612 72.9713 18.7924V47.5549C72.9713 49.086 71.9145 50.3319 70.6155 50.3319ZM38.3469 16.4791C37.2649 16.4791 36.3845 17.5169 36.3845 18.7924V47.5549C36.3845 48.8304 37.2649 49.8681 38.3469 49.8681H70.6155C71.6975 49.8681 72.5779 48.8304 72.5779 47.5549V18.7924C72.5779 17.5169 71.6975 16.4791 70.6155 16.4791H38.3469Z" fill="#3F3D56"/>
<path d="M67.0702 19.4934C67.3961 19.4934 67.6603 19.182 67.6603 18.7978C67.6603 18.4136 67.3961 18.1022 67.0702 18.1022C66.7443 18.1022 66.4801 18.4136 66.4801 18.7978C66.4801 19.182 66.7443 19.4934 67.0702 19.4934Z" fill="#3F3D56"/>
<path d="M68.6438 19.4934C68.9697 19.4934 69.2339 19.182 69.2339 18.7978C69.2339 18.4136 68.9697 18.1022 68.6438 18.1022C68.3179 18.1022 68.0537 18.4136 68.0537 18.7978C68.0537 19.182 68.3179 19.4934 68.6438 19.4934Z" fill="#3F3D56"/>
<path d="M70.2175 19.4934C70.5434 19.4934 70.8076 19.182 70.8076 18.7978C70.8076 18.4136 70.5434 18.1022 70.2175 18.1022C69.8916 18.1022 69.6274 18.4136 69.6274 18.7978C69.6274 19.182 69.8916 19.4934 70.2175 19.4934Z" fill="#3F3D56"/>
<path d="M39.335 30.0434C39.1723 30.0434 39.04 30.1994 39.04 30.3912C39.04 30.4847 39.0706 30.5712 39.1262 30.6351C39.1823 30.7028 39.2558 30.739 39.335 30.739H69.8241C69.9868 30.739 70.1191 30.583 70.1191 30.3912C70.1191 30.2977 70.0885 30.2112 70.0329 30.1473C69.9768 30.0796 69.9033 30.0434 69.8241 30.0434H39.335Z" fill="#E6E6E6"/>
<path d="M64.3164 29.9275V30.855H39.3351C39.2269 30.855 39.1285 30.8039 39.0577 30.7182C38.9849 30.6347 38.9417 30.5187 38.9417 30.3912C38.9417 30.1362 39.1187 29.9275 39.3351 29.9275H64.3164Z" fill="#FA7268"/>
<path d="M69.3323 28.1884H65.3983C64.9644 28.1884 64.6115 27.7725 64.6115 27.261C64.6115 26.7495 64.9644 26.3335 65.3983 26.3335H69.3323C69.7662 26.3335 70.1191 26.7495 70.1191 27.261C70.1191 27.7725 69.7662 28.1884 69.3323 28.1884Z" fill="#E6E6E6"/>
<path d="M43.5641 23.3192H39.6301C39.1962 23.3192 38.8433 22.9033 38.8433 22.3918C38.8433 21.8803 39.1962 21.4643 39.6301 21.4643H43.5641C43.998 21.4643 44.351 21.8803 44.351 22.3918C44.351 22.9033 43.998 23.3192 43.5641 23.3192Z" fill="#E6E6E6"/>
<path d="M39.335 40.4775C39.1723 40.4775 39.04 40.6335 39.04 40.8253C39.04 40.9188 39.0706 41.0053 39.1262 41.0691C39.1823 41.1369 39.2558 41.1731 39.335 41.1731H69.8241C69.9868 41.1731 70.1191 41.0171 70.1191 40.8253C70.1191 40.7318 70.0885 40.6453 70.0329 40.5814C69.9768 40.5137 69.9033 40.4775 69.8241 40.4775H39.335Z" fill="#E6E6E6"/>
<path d="M49.1702 40.3616V41.289H39.3351C39.2269 41.289 39.1285 41.238 39.0577 41.1522C38.9849 41.0688 38.9417 40.9528 38.9417 40.8253C38.9417 40.5702 39.1187 40.3616 39.3351 40.3616H49.1702Z" fill="#FA7268"/>
<path d="M69.3323 38.6225H65.3983C64.9644 38.6225 64.6115 38.2066 64.6115 37.6951C64.6115 37.1835 64.9644 36.7676 65.3983 36.7676H69.3323C69.7662 36.7676 70.1191 37.1835 70.1191 37.6951C70.1191 38.2066 69.7662 38.6225 69.3323 38.6225Z" fill="#E6E6E6"/>
</g>
<defs>
<clipPath id="clip0_65_31">
<rect width="123" height="89" fill="white"/>
</clipPath>
</defs>
</svg>
