<svg width="102" height="92" viewBox="0 0 102 92" fill="none" xmlns="http://www.w3.org/2000/svg">
<g clip-path="url(#clip0_65_79)">
<path d="M83.0109 9.24645C83.6626 6.33128 83.0429 2.93149 80.9374 1.01398C80.8962 4.27773 79.8037 7.42032 77.8532 9.88574C77.0978 10.8336 76.1677 11.8015 76.1311 13.0597C76.1083 13.8426 76.4568 14.5945 76.9369 15.1743C77.4171 15.7541 78.0229 16.188 78.6215 16.6153L78.7094 16.7854C80.6363 14.6539 82.3592 12.1616 83.0109 9.24645Z" fill="#F0F0F0"/>
<path d="M80.8951 1.05655C81.7026 3.37776 81.8227 5.919 81.2383 8.31932C81.1208 8.8385 80.9295 9.33414 80.6713 9.78798C80.4068 10.2212 80.0413 10.5688 79.6129 10.7947C79.2173 11.0141 78.7894 11.1883 78.4493 11.5094C78.2774 11.6766 78.1398 11.8817 78.0452 12.1113C77.9507 12.341 77.9016 12.5899 77.901 12.8419C77.8845 13.4696 78.0748 14.0664 78.2793 14.6429C78.5063 15.283 78.7514 15.9439 78.6989 16.6447C78.6926 16.7296 78.8131 16.7354 78.8194 16.6507C78.9108 15.4314 78.1557 14.4015 78.0359 13.2188C77.98 12.667 78.0755 12.0933 78.4475 11.691C78.7728 11.3392 79.2139 11.1591 79.6162 10.9407C80.0371 10.7271 80.4039 10.4037 80.6846 9.9987C80.963 9.56074 81.1714 9.07401 81.3009 8.55936C81.6094 7.40582 81.7505 6.20626 81.7191 5.00464C81.6903 3.63302 81.4477 2.27693 81.0019 0.995018C80.9743 0.915688 80.8677 0.977742 80.8951 1.05655Z" fill="white"/>
<path d="M81.468 7.55855C81.8485 7.61141 82.2338 7.51421 82.555 7.28431C82.8762 7.0544 83.1124 6.70676 83.2215 6.30347C83.2433 6.22179 83.1286 6.18078 83.1067 6.26257C83.0058 6.63832 82.7857 6.96212 82.4862 7.17554C82.1867 7.38896 81.8275 7.47793 81.4734 7.4264C81.3965 7.4153 81.3915 7.54752 81.468 7.55855Z" fill="white"/>
<path d="M79.8268 10.7124C79.3409 10.0375 79.1048 9.18656 79.1656 8.32925C79.1717 8.24431 79.0512 8.23843 79.0451 8.32325C78.9834 9.21552 79.2307 10.1005 79.7378 10.8016C79.7861 10.8684 79.8749 10.7788 79.8268 10.7124Z" fill="white"/>
<path d="M81.545 3.7064C81.3939 3.7196 81.2422 3.69142 81.1034 3.6244C80.9647 3.55739 80.8433 3.45363 80.7502 3.32245C80.7026 3.25502 80.6138 3.34468 80.6611 3.41167C80.7646 3.55607 80.8988 3.67048 81.0519 3.7449C81.2051 3.81931 81.3725 3.85147 81.5396 3.83856C81.5554 3.83879 81.5707 3.83239 81.5824 3.82068C81.5941 3.80896 81.6013 3.7928 81.6025 3.77547C81.6032 3.75797 81.5975 3.7409 81.5867 3.72796C81.576 3.71503 81.561 3.70728 81.545 3.7064Z" fill="white"/>
<path d="M71.832 2.90118C71.8606 2.94421 71.8893 2.98724 71.9176 3.03133C72.2995 3.61201 72.6378 4.22576 72.9292 4.86652C72.9524 4.91567 72.9753 4.96586 72.9972 5.01564C73.6841 6.56758 74.1023 8.2459 74.2305 9.96527C74.281 10.6495 74.2839 11.3369 74.2392 12.0217C74.1775 12.9673 74.042 13.9872 74.2623 14.8738C74.2843 14.9666 74.3115 15.0578 74.3439 15.1469L78.5134 16.8899C78.5247 16.8886 78.5356 16.8884 78.547 16.8872L78.7105 16.9651C78.7151 16.93 78.7191 16.8934 78.7237 16.8583C78.7264 16.8379 78.7282 16.8172 78.7309 16.7968C78.7324 16.7831 78.7339 16.7694 78.736 16.7571C78.7365 16.7525 78.737 16.7479 78.7371 16.7444C78.7392 16.7322 78.74 16.7205 78.7417 16.7093C78.7647 16.5051 78.7865 16.3003 78.807 16.095C78.8074 16.0939 78.8074 16.0939 78.8068 16.0925C78.9768 14.5298 78.9771 12.9504 78.8078 11.3876C78.8022 11.341 78.797 11.2935 78.7895 11.2461C78.7018 10.549 78.5624 9.86092 78.3725 9.18873C78.2675 8.82103 78.1455 8.45939 78.0071 8.10521C77.648 7.19082 77.1599 6.34408 76.5608 5.59603C75.3663 4.10498 73.7503 3.04949 71.9683 2.91034C71.9227 2.90683 71.878 2.90366 71.832 2.90118Z" fill="#F0F0F0"/>
<path d="M71.8212 2.96312C73.7403 4.28328 75.2313 6.23303 76.0824 8.53542C76.2737 9.02751 76.393 9.54958 76.436 10.0824C76.4626 10.603 76.3616 11.1218 76.1436 11.5851C75.9481 12.0215 75.7021 12.4431 75.6069 12.924C75.5614 13.171 75.5641 13.4257 75.6147 13.6715C75.6653 13.9172 75.7627 14.1484 75.9006 14.35C76.2321 14.8621 76.7116 15.213 77.1913 15.5382C77.724 15.8994 78.2826 16.2652 78.6254 16.8594C78.6669 16.9314 78.7664 16.8565 78.7249 16.7847C78.1284 15.7508 76.9601 15.4271 76.2153 14.5619C75.8677 14.1582 75.6289 13.6371 75.7051 13.0702C75.7717 12.5745 76.025 12.1395 76.2264 11.6995C76.4452 11.251 76.5605 10.7506 76.5623 10.2419C76.5441 9.70839 76.4433 9.18215 76.2642 8.68571C75.8772 7.56103 75.3313 6.51007 74.6466 5.57134C73.8706 4.49523 72.9324 3.57263 71.8727 2.84347C71.8071 2.79837 71.756 2.9183 71.8212 2.96312Z" fill="white"/>
<path d="M75.8482 7.7764C76.181 7.56735 76.4353 7.23535 76.5655 6.83969C76.6958 6.44404 76.6935 6.01049 76.5592 5.61647C76.5318 5.53685 76.4177 5.57985 76.4451 5.65958C76.5708 6.02623 76.5729 6.43009 76.4509 6.79825C76.3289 7.16641 76.091 7.47463 75.78 7.66727C75.7124 7.70923 75.781 7.81811 75.8482 7.7764Z" fill="white"/>
<path d="M76.2692 11.3781C75.5108 11.1601 74.8551 10.6365 74.433 9.91189C74.3912 9.84006 74.2918 9.91493 74.3335 9.98668C74.7741 10.7399 75.4574 11.2832 76.2471 11.5082C76.3224 11.5295 76.3441 11.3994 76.2692 11.3781Z" fill="white"/>
<path d="M73.7949 4.64976C73.6815 4.76007 73.5449 4.83777 73.3973 4.87587C73.2497 4.91397 73.0959 4.91127 72.9495 4.86803C72.8745 4.8456 72.8528 4.97579 72.9273 4.99807C73.0893 5.04502 73.2592 5.04777 73.4224 5.00607C73.5855 4.96438 73.7368 4.87951 73.8631 4.75888C73.8759 4.7486 73.8846 4.73338 73.8875 4.7163C73.8904 4.69922 73.8873 4.68157 73.8788 4.66693C73.8697 4.65253 73.8558 4.64265 73.8401 4.63943C73.8244 4.63622 73.8081 4.63993 73.7949 4.64976Z" fill="white"/>
<path d="M66.3191 68.7511C52.3404 68.7511 40.968 56.279 40.968 40.9488C40.968 25.6185 52.3404 13.1464 66.3191 13.1464C67.7969 13.1462 69.272 13.2864 70.7278 13.5654C70.7459 13.5688 70.7633 13.5762 70.7789 13.587C70.7944 13.5978 70.8079 13.6118 70.8185 13.6283C70.8291 13.6449 70.8366 13.6635 70.8406 13.6832C70.8447 13.703 70.8451 13.7233 70.8419 13.7432C70.8387 13.7631 70.832 13.7822 70.8221 13.7992C70.8122 13.8162 70.7993 13.831 70.7843 13.8426C70.7692 13.8541 70.7521 13.8624 70.7342 13.8667C70.7162 13.8711 70.6976 13.8715 70.6794 13.8679C69.2396 13.5921 67.7807 13.4535 66.3191 13.4536C52.4949 13.4536 41.2481 25.7879 41.2481 40.9488C41.2481 56.1096 52.4949 68.4439 66.3191 68.4439C80.1433 68.4439 91.3901 56.1096 91.3901 40.9488C91.3963 34.0962 89.0631 27.4893 84.8499 22.4289C84.8251 22.3987 84.8122 22.3591 84.814 22.3185C84.8158 22.278 84.8322 22.2399 84.8595 22.2125C84.8869 22.1852 84.923 22.1708 84.96 22.1726C84.997 22.1743 85.0318 22.192 85.0569 22.2219C89.3172 27.3389 91.6764 34.0196 91.6702 40.9488C91.6702 56.279 80.2977 68.7511 66.3191 68.7511Z" fill="#E4E4E4"/>
<path d="M77.497 22.6817C80.2671 22.6817 82.5127 20.2189 82.5127 17.181C82.5127 14.143 80.2671 11.6802 77.497 11.6802C74.7269 11.6802 72.4813 14.143 72.4813 17.181C72.4813 20.2189 74.7269 22.6817 77.497 22.6817Z" fill="#FA7268"/>
<path d="M76.8128 20.0438C76.7262 20.0438 76.6407 20.0217 76.5633 19.9792C76.4858 19.9367 76.4184 19.875 76.3665 19.799L74.9981 17.7981C74.9541 17.7338 74.9222 17.6607 74.904 17.5828C74.8858 17.505 74.8818 17.424 74.8921 17.3444C74.9025 17.2649 74.9271 17.1884 74.9644 17.1192C75.0017 17.0501 75.0511 16.9897 75.1097 16.9415C75.1683 16.8933 75.235 16.8582 75.306 16.8383C75.377 16.8183 75.4508 16.8139 75.5234 16.8253C75.5959 16.8366 75.6657 16.8636 75.7287 16.9045C75.7918 16.9454 75.8468 16.9996 75.8908 17.0639L76.786 18.3728L79.0853 14.5905C79.1676 14.456 79.2952 14.3628 79.44 14.3313C79.5849 14.2998 79.7352 14.3325 79.8581 14.4224C79.981 14.5122 80.0664 14.6518 80.0955 14.8105C80.1247 14.9693 80.0953 15.1343 80.0138 15.2693L77.2771 19.7713C77.2275 19.8528 77.161 19.92 77.0829 19.9674C77.0048 20.0147 76.9175 20.0409 76.8283 20.0436C76.8231 20.0437 76.818 20.0438 76.8128 20.0438Z" fill="white"/>
<path d="M65.6669 36.6342L57.9322 13.0358L58.1283 12.9585L56.7058 8.61815L56.5097 8.69555L54.1348 1.45014C54.0461 1.17953 53.9097 0.930728 53.7333 0.717941C53.5569 0.505154 53.3441 0.332548 53.1069 0.209978C52.8697 0.0874085 52.6128 0.0172743 52.3509 0.0035823C52.089 -0.0101096 51.8272 0.0329081 51.5805 0.130179L37.5978 5.6423C37.351 5.73956 37.1241 5.88917 36.9301 6.08259C36.7361 6.27601 36.5787 6.50944 36.4669 6.76957C36.3551 7.0297 36.2912 7.31142 36.2787 7.59866C36.2662 7.88589 36.3054 8.17301 36.3941 8.44362L38.05 13.4956L37.74 13.6264L38.7971 16.6366L39.0452 16.5318L39.2646 17.2014L39.0006 17.3129L40.0576 20.3231L40.2598 20.2377L47.9262 43.6276C48.0145 43.8986 48.1507 44.1477 48.327 44.3608C48.5032 44.5739 48.7161 44.7467 48.9535 44.8694C49.1908 44.992 49.4479 45.0621 49.7099 45.0755C49.972 45.0889 50.2339 45.0455 50.4806 44.9477L64.4632 39.4356C64.9612 39.2385 65.3676 38.833 65.5932 38.3078C65.8189 37.7826 65.8454 37.1807 65.6669 36.6342Z" fill="#3F3D56"/>
<path d="M49.7452 44.17C49.5483 44.1695 49.3563 44.1025 49.1953 43.9782C49.0343 43.8538 48.9121 43.6781 48.8454 43.475L37.1916 7.91963C37.1058 7.65775 37.1184 7.36922 37.2265 7.1175C37.3347 6.86577 37.5296 6.67147 37.7684 6.57732L40.7434 5.40451L40.739 5.51867C40.7313 5.71683 40.7683 5.91401 40.8465 6.09283C40.9247 6.27166 41.0418 6.42664 41.1875 6.54413C41.3332 6.66162 41.503 6.73801 41.682 6.76657C41.861 6.79513 42.0436 6.77498 42.2138 6.7079L48.8164 4.10511C48.9758 4.02503 49.1157 3.90493 49.2249 3.75453C49.3341 3.60413 49.4095 3.42764 49.4449 3.23936C49.48 3.05422 49.4747 2.8626 49.4294 2.68015C49.3841 2.49769 49.3002 2.32956 49.1843 2.18948L49.1146 2.1045L52.1877 0.892999C52.4265 0.799256 52.6895 0.813203 52.9189 0.931784C53.1484 1.05036 53.3256 1.2639 53.4117 1.52556L64.5305 35.4484C64.7574 36.1433 64.7237 36.9085 64.4368 37.5763C64.1499 38.244 63.6332 38.7596 63.0001 39.0101L50.0694 44.1076C49.9654 44.1487 49.8557 44.1698 49.7452 44.17Z" fill="white"/>
<path d="M48.606 18.9512C50.6946 18.9512 52.3877 17.0944 52.3877 14.8039C52.3877 12.5134 50.6946 10.6566 48.606 10.6566C46.5174 10.6566 44.8243 12.5134 44.8243 14.8039C44.8243 17.0944 46.5174 18.9512 48.606 18.9512Z" fill="#FA7268"/>
<path d="M57.9769 20.8351L44.8808 25.9977C44.8399 26.0139 44.7965 26.0212 44.753 26.019C44.7096 26.0168 44.667 26.0052 44.6276 25.9849C44.5882 25.9646 44.5529 25.936 44.5236 25.9008C44.4943 25.8655 44.4717 25.8242 44.4569 25.7793C44.4422 25.7344 44.4357 25.6868 44.4378 25.6391C44.4399 25.5915 44.4506 25.5447 44.4692 25.5016C44.4877 25.4584 44.5139 25.4198 44.5461 25.3877C44.5784 25.3557 44.6161 25.331 44.657 25.3149L57.7531 20.1523C57.8356 20.12 57.9264 20.125 58.0056 20.166C58.0847 20.2071 58.1459 20.2809 58.1755 20.3713C58.2051 20.4617 58.2008 20.5613 58.1636 20.6482C58.1264 20.7351 58.0592 20.8023 57.9769 20.8351Z" fill="#E6E6E6"/>
<path d="M54.0878 24.1084L49.7801 25.8066C49.7392 25.8228 49.6958 25.83 49.6523 25.8278C49.6089 25.8256 49.5663 25.814 49.5269 25.7937C49.4875 25.7734 49.4522 25.7448 49.4229 25.7096C49.3936 25.6743 49.371 25.633 49.3563 25.5881C49.3416 25.5432 49.3351 25.4956 49.3372 25.448C49.3393 25.4003 49.3499 25.3536 49.3685 25.3104C49.3871 25.2673 49.4132 25.2286 49.4454 25.1966C49.4777 25.1646 49.5153 25.1398 49.5563 25.1238L53.864 23.4256C53.9465 23.3931 54.0375 23.3978 54.1169 23.4388C54.1962 23.4799 54.2575 23.5538 54.2872 23.6443C54.3168 23.7349 54.3125 23.8346 54.2751 23.9217C54.2377 24.0087 54.1703 24.0759 54.0878 24.1084Z" fill="#E6E6E6"/>
<path d="M55.1124 27.2344L50.8047 28.9325C50.7638 28.9487 50.7204 28.9558 50.6771 28.9535C50.6337 28.9512 50.5911 28.9396 50.5518 28.9193C50.5125 28.899 50.4772 28.8704 50.448 28.8352C50.4188 28.7999 50.3962 28.7587 50.3815 28.7139C50.3668 28.669 50.3603 28.6215 50.3624 28.5739C50.3644 28.5263 50.375 28.4796 50.3936 28.4365C50.4121 28.3934 50.4381 28.3547 50.4703 28.3227C50.5024 28.2906 50.54 28.2659 50.5809 28.2497L54.8886 26.5516C54.9711 26.5191 55.0621 26.5238 55.1415 26.5648C55.2208 26.6058 55.2821 26.6797 55.3118 26.7703C55.3414 26.8608 55.3371 26.9606 55.2997 27.0476C55.2623 27.1347 55.1949 27.2019 55.1124 27.2344Z" fill="#E6E6E6"/>
<path d="M55.6371 28.8355L51.3295 30.5336C51.2886 30.5499 51.2451 30.5571 51.2017 30.5549C51.1582 30.5528 51.1155 30.5412 51.0762 30.5209C51.0368 30.5006 51.0014 30.472 50.9721 30.4367C50.9429 30.4014 50.9202 30.3602 50.9055 30.3153C50.8908 30.2704 50.8843 30.2227 50.8864 30.175C50.8885 30.1274 50.8991 30.0806 50.9177 30.0375C50.9363 29.9944 50.9625 29.9557 50.9947 29.9236C51.027 29.8916 51.0647 29.8669 51.1057 29.8508L55.4133 28.1527C55.4542 28.1365 55.4977 28.1292 55.5411 28.1314C55.5846 28.1336 55.6272 28.1452 55.6666 28.1655C55.706 28.1858 55.7413 28.2144 55.7706 28.2496C55.7999 28.2849 55.8225 28.3262 55.8372 28.3711C55.8519 28.416 55.8584 28.4636 55.8563 28.5113C55.8543 28.5589 55.8436 28.6057 55.825 28.6488C55.8064 28.692 55.7803 28.7306 55.748 28.7627C55.7158 28.7947 55.6781 28.8194 55.6371 28.8355Z" fill="#E6E6E6"/>
<path d="M57.0088 24.6971L47.8694 28.3C47.8285 28.3162 47.785 28.3235 47.7416 28.3213C47.6981 28.3191 47.6555 28.3075 47.6161 28.2872C47.5767 28.2669 47.5414 28.2383 47.5121 28.203C47.4828 28.1678 47.4602 28.1265 47.4455 28.0816C47.4308 28.0367 47.4243 27.989 47.4263 27.9414C47.4284 27.8937 47.4391 27.847 47.4577 27.8039C47.4763 27.7607 47.5024 27.722 47.5347 27.69C47.5669 27.658 47.6046 27.6332 47.6456 27.6172L56.785 24.0143C56.8259 23.9981 56.8693 23.9909 56.9128 23.9931C56.9562 23.9952 56.9989 24.0068 57.0382 24.0271C57.0776 24.0474 57.1129 24.076 57.1422 24.1113C57.1715 24.1466 57.1942 24.1878 57.2089 24.2327C57.2236 24.2776 57.2301 24.3253 57.228 24.3729C57.2259 24.4206 57.2152 24.4673 57.1967 24.5104C57.1781 24.5536 57.1519 24.5923 57.1197 24.6243C57.0874 24.6563 57.0497 24.6811 57.0088 24.6971Z" fill="#E6E6E6"/>
<path d="M55.1679 32.7222L53.6038 33.3387C53.4634 33.394 53.3088 33.3858 53.1739 33.316C53.0391 33.2463 52.935 33.1206 52.8845 32.9668C52.8341 32.8129 52.8414 32.6433 52.9049 32.4953C52.9685 32.3474 53.0829 32.2331 53.2232 32.1777L54.7873 31.5611C54.9277 31.5059 55.0823 31.5141 55.2172 31.5838C55.352 31.6536 55.4561 31.7792 55.5066 31.9331C55.557 32.087 55.5497 32.2566 55.4861 32.4045C55.4226 32.5525 55.3082 32.6667 55.1679 32.7222Z" fill="#FA7268"/>
<path d="M42.8423 5.51951C42.9625 5.51951 43.0598 5.41271 43.0598 5.28096C43.0598 5.14922 42.9625 5.04242 42.8423 5.04242C42.7222 5.04242 42.6248 5.14922 42.6248 5.28096C42.6248 5.41271 42.7222 5.51951 42.8423 5.51951Z" fill="white"/>
<path d="M17.8275 18.6973C20.2653 15.5502 24.2209 13.5668 27.8676 14.5951C24.5831 17.2767 22.2694 21.146 21.3359 25.5184C20.9814 27.2061 20.7474 29.1236 19.498 30.1828C18.7206 30.8419 17.6753 31.022 16.6988 30.9024C15.7222 30.7828 14.7928 30.392 13.8758 30.0047L13.632 30.0343C14.2453 25.96 15.3896 21.8444 17.8275 18.6973Z" fill="#F0F0F0"/>
<path d="M27.8584 14.6811C24.8478 15.5653 22.1678 17.4673 20.199 20.117C19.766 20.6791 19.4164 21.3126 19.1632 21.9942C18.9361 22.6668 18.8774 23.3939 18.9932 24.0998C19.0892 24.7604 19.257 25.424 19.2048 26.0986C19.1734 26.4435 19.0759 26.7773 18.9187 27.0779C18.7615 27.3786 18.548 27.6395 18.2924 27.8433C17.6676 28.3695 16.9076 28.6181 16.1567 28.8328C15.323 29.0713 14.4536 29.3045 13.7835 29.9336C13.7023 30.0099 13.5992 29.8672 13.6803 29.7911C14.8461 28.6965 16.5017 28.7893 17.8005 27.9822C18.4065 27.6057 18.9127 27.0265 19.0217 26.2473C19.117 25.5659 18.9445 24.8815 18.8421 24.2135C18.7199 23.5267 18.753 22.8175 18.9383 22.1479C19.1591 21.4544 19.4858 20.8072 19.9045 20.2339C20.8284 18.9268 21.934 17.7872 23.1808 16.8567C24.5983 15.7862 26.1723 14.9894 27.8348 14.501C27.9377 14.4708 27.9606 14.6511 27.8584 14.6811Z" fill="white"/>
<path d="M20.7872 19.2229C20.4266 18.8002 20.2148 18.2509 20.1896 17.6728C20.1643 17.0947 20.3272 16.5256 20.6492 16.0672C20.7147 15.9746 20.8489 16.0818 20.7833 16.1745C20.4828 16.6008 20.331 17.1309 20.3556 17.6692C20.3801 18.2074 20.5792 18.7183 20.9171 19.1096C20.9904 19.1948 20.8601 19.3075 20.7872 19.2229Z" fill="white"/>
<path d="M18.9044 23.7719C19.9821 23.8218 21.0375 23.4244 21.8599 22.6589C21.9413 22.583 22.0445 22.7256 21.9632 22.8014C21.1059 23.5963 20.0069 24.0074 18.8855 23.9527C18.7786 23.9474 18.7981 23.7666 18.9044 23.7719Z" fill="white"/>
<path d="M24.6408 16.0229C24.7492 16.2183 24.9002 16.3811 25.0802 16.4967C25.2601 16.6123 25.4635 16.677 25.6719 16.6851C25.7788 16.6889 25.7592 16.8697 25.653 16.866C25.4228 16.8558 25.1983 16.784 24.9992 16.6568C24.8001 16.5296 24.6324 16.3508 24.5108 16.1361C24.4978 16.117 24.492 16.0931 24.4945 16.0693C24.4969 16.0456 24.5076 16.0237 24.5242 16.0083C24.5415 15.9934 24.5634 15.9866 24.5852 15.9893C24.6071 15.992 24.627 16.0041 24.6408 16.0229Z" fill="white"/>
<path d="M33.2901 27.2487C33.2233 27.2484 33.1565 27.2481 33.0889 27.2491C32.1907 27.2502 31.294 27.3314 30.4078 27.4919C30.3391 27.5031 30.2697 27.5156 30.2014 27.5289C28.07 27.9403 26.0269 28.7822 24.1757 30.0116C23.4395 30.5015 22.7384 31.0522 22.0784 31.6588C21.1669 32.4967 20.2394 33.4846 19.1605 33.9302C19.0485 33.978 18.9338 34.0182 18.8172 34.0506L13.6839 30.3582C13.6761 30.3434 13.6674 30.3298 13.6595 30.315L13.4484 30.1778C13.4805 30.1439 13.5144 30.1095 13.5464 30.0756C13.5649 30.0559 13.5846 30.037 13.6031 30.0172C13.6158 30.0043 13.6286 29.9914 13.6394 29.979C13.6436 29.9747 13.6479 29.9704 13.6513 29.9674C13.6621 29.9549 13.6733 29.9447 13.6834 29.9335C13.8724 29.7406 14.063 29.5489 14.2551 29.3583C14.2559 29.357 14.2559 29.357 14.2578 29.3566C15.7253 27.9084 17.3159 26.5818 19.0396 25.5622C19.0914 25.5315 19.144 25.4995 19.1982 25.4706C19.9775 25.0157 20.7894 24.6314 21.6257 24.3216C22.0842 24.1536 22.5501 24.0111 23.0217 23.8947C24.2407 23.5966 25.4949 23.5107 26.7384 23.64C29.217 23.8983 31.5928 25.023 33.171 27.0895C33.2113 27.1424 33.2506 27.1945 33.2901 27.2487Z" fill="#F0F0F0"/>
<path d="M33.2359 27.3119C30.3467 26.03 27.1627 25.779 24.1361 26.5947C23.4817 26.7576 22.8548 27.0326 22.2785 27.4096C21.7279 27.7968 21.2819 28.3385 20.9868 28.9787C20.7007 29.5694 20.4705 30.2101 20.0584 30.7143C19.844 30.969 19.583 31.171 19.2923 31.3073C19.0017 31.4435 18.6881 31.5109 18.3721 31.5049C17.5843 31.5124 16.8411 31.2091 16.1236 30.8848C15.3271 30.5247 14.5048 30.1368 13.6244 30.1967C13.5178 30.204 13.5137 30.022 13.6202 30.0148C15.152 29.9105 16.423 31.0778 17.903 31.291C18.5936 31.3904 19.3157 31.2622 19.8306 30.712C20.2808 30.2309 20.5188 29.5705 20.8037 28.9696C21.0832 28.3405 21.499 27.7961 22.0146 27.3839C22.5715 26.9759 23.1877 26.6748 23.8367 26.4936C25.292 26.06 26.8004 25.8801 28.3067 25.9604C30.0262 26.0415 31.7204 26.4447 33.316 27.1524C33.4147 27.1963 33.334 27.3554 33.2359 27.3119Z" fill="white"/>
<path d="M25.0966 26.2692C25.0408 25.6937 25.1732 25.1152 25.4704 24.6369C25.7676 24.1587 26.2101 23.8119 26.7189 23.6585C26.822 23.6278 26.8703 23.802 26.7671 23.8327C26.293 23.9746 25.8809 24.2977 25.605 24.7437C25.3291 25.1896 25.2076 25.729 25.2625 26.2646C25.2743 26.3809 25.1083 26.3849 25.0966 26.2692Z" fill="white"/>
<path d="M21.0959 28.6582C21.929 29.4097 22.9898 29.7892 24.0668 29.721C24.1735 29.7142 24.1775 29.8961 24.071 29.903C22.9502 29.9716 21.847 29.5742 20.9816 28.7901C20.8991 28.7153 21.0139 28.5838 21.0959 28.6582Z" fill="white"/>
<path d="M29.9302 26.2587C29.9095 26.4863 29.9407 26.7159 30.0209 26.9271C30.1012 27.1382 30.228 27.3242 30.3899 27.4683C30.4732 27.5419 30.3583 27.6733 30.2756 27.6002C30.0973 27.44 29.9575 27.2345 29.8684 27.0014C29.7792 26.7684 29.7435 26.515 29.7643 26.2633C29.7644 26.2394 29.7729 26.2164 29.7879 26.1991C29.8029 26.1818 29.8234 26.1714 29.8451 26.17C29.8671 26.1695 29.8884 26.1786 29.9043 26.1952C29.9202 26.2118 29.9295 26.2346 29.9302 26.2587Z" fill="white"/>
<path d="M90.9908 79.185C93.649 79.8998 96.749 79.2201 98.4975 76.911C95.5215 76.8659 92.6559 75.6678 90.4079 73.5286C89.5436 72.7002 88.661 71.6801 87.5138 71.64C86.7999 71.6149 86.1143 71.9971 85.5856 72.5237C85.0569 73.0504 84.6613 73.7147 84.2716 74.3712L84.1165 74.4676C86.0602 76.5808 88.3327 78.4702 90.9908 79.185Z" fill="#F0F0F0"/>
<path d="M98.4586 76.8646C96.3421 77.7502 94.0249 77.8819 91.8362 77.241C91.3628 77.1122 90.9108 76.9024 90.497 76.6192C90.102 76.3291 89.7851 75.9283 89.5791 75.4584C89.379 75.0246 89.2202 74.5553 88.9274 74.1824C88.7749 73.9939 88.5879 73.8429 88.3785 73.7392C88.1691 73.6356 87.9421 73.5817 87.7124 73.581C87.14 73.563 86.5958 73.7716 86.0702 73.9959C85.4865 74.2449 84.8839 74.5137 84.2448 74.4561C84.1674 74.4492 84.1621 74.5813 84.2394 74.5883C85.3512 74.6884 86.2903 73.8603 87.3686 73.729C87.8718 73.6677 88.3949 73.7724 88.7618 74.1804C89.0826 74.5372 89.2468 75.0209 89.4459 75.4621C89.6407 75.9237 89.9356 76.326 90.3049 76.6338C90.7042 76.9391 91.148 77.1677 91.6173 77.3097C92.6691 77.648 93.7629 77.8027 94.8586 77.7683C96.1093 77.7367 97.3458 77.4707 98.5147 76.9818C98.5871 76.9515 98.5305 76.8345 98.4586 76.8646Z" fill="white"/>
<path d="M92.5299 77.4929C92.4817 77.9102 92.5703 78.3327 92.78 78.685C92.9896 79.0372 93.3066 79.2963 93.6743 79.4159C93.7488 79.4399 93.7862 79.314 93.7116 79.2901C93.369 79.1794 93.0738 78.938 92.8792 78.6096C92.6846 78.2811 92.6034 77.8872 92.6504 77.4989C92.6605 77.4145 92.54 77.409 92.5299 77.4929Z" fill="white"/>
<path d="M89.6541 75.693C90.2695 75.1602 91.0454 74.9013 91.8271 74.9679C91.9046 74.9746 91.9099 74.8424 91.8326 74.8358C91.019 74.7681 90.212 75.0393 89.5728 75.5954C89.5119 75.6484 89.5935 75.7458 89.6541 75.693Z" fill="white"/>
<path d="M96.0424 77.5774C96.0304 77.4117 96.0561 77.2453 96.1172 77.0931C96.1783 76.941 96.2729 76.8078 96.3925 76.7057C96.454 76.6535 96.3722 76.5562 96.3112 76.608C96.1795 76.7215 96.0752 76.8687 96.0073 77.0366C95.9395 77.2046 95.9101 77.3882 95.9219 77.5714C95.9217 77.5888 95.9275 77.6056 95.9382 77.6184C95.9489 77.6313 95.9636 77.6391 95.9794 77.6405C95.9954 77.6412 96.011 77.635 96.0228 77.6231C96.0345 77.6113 96.0416 77.5949 96.0424 77.5774Z" fill="white"/>
<path d="M96.7767 66.9252C96.7374 66.9566 96.6982 66.988 96.658 67.019C96.1285 67.4379 95.5689 67.809 94.9846 68.1285C94.9398 68.154 94.894 68.179 94.8486 68.2031C93.4335 68.9564 91.9032 69.415 90.3354 69.5556C89.7115 69.611 89.0847 69.6142 88.4603 69.5652C87.5981 69.4975 86.6681 69.3489 85.8596 69.5904C85.775 69.6146 85.6918 69.6445 85.6106 69.6799L84.0213 74.2526C84.0225 74.265 84.0226 74.277 84.0238 74.2894L83.9527 74.4688C83.9847 74.4738 84.0181 74.4782 84.0501 74.4832C84.0687 74.4862 84.0876 74.4882 84.1062 74.4911C84.1187 74.4928 84.1312 74.4944 84.1424 74.4967C84.1465 74.4973 84.1507 74.4978 84.1539 74.498C84.1651 74.5003 84.1757 74.5011 84.186 74.503C84.3722 74.5283 84.5589 74.5521 84.7461 74.5746C84.7471 74.575 84.7471 74.575 84.7484 74.5744C86.1733 74.7608 87.6134 74.7612 89.0385 74.5755C89.0809 74.5693 89.1243 74.5636 89.1675 74.5554C89.8031 74.4592 90.4305 74.3063 91.0435 74.0981C91.3788 73.9829 91.7085 73.8492 92.0315 73.6974C92.8652 73.3035 93.6373 72.7683 94.3194 72.1112C95.679 70.8013 96.6414 69.029 96.7683 67.0746C96.7715 67.0246 96.7744 66.9756 96.7767 66.9252Z" fill="#F0F0F0"/>
<path d="M96.7202 66.9134C95.5164 69.018 93.7386 70.6531 91.6392 71.5866C91.1905 71.7963 90.7144 71.9272 90.2286 71.9744C89.7539 72.0035 89.2808 71.8928 88.8584 71.6536C88.4605 71.4393 88.076 71.1695 87.6375 71.0651C87.4123 71.0152 87.1801 71.0182 86.956 71.0737C86.7319 71.1292 86.521 71.236 86.3372 71.3872C85.8703 71.7507 85.5504 72.2766 85.2538 72.8027C84.9245 73.3869 84.5909 73.9995 84.0491 74.3754C83.9834 74.421 84.0517 74.5301 84.1173 74.4846C85.0599 73.8304 85.3551 72.5492 86.144 71.7323C86.5122 71.3511 86.9873 71.0893 87.5042 71.1728C87.9562 71.2459 88.3529 71.5237 88.7541 71.7445C89.163 71.9844 89.6193 72.1109 90.0831 72.1128C90.5696 72.0929 91.0495 71.9824 91.5021 71.786C92.5277 71.3615 93.486 70.7629 94.3419 70.012C95.3232 69.1609 96.1644 68.132 96.8293 66.9698C96.8704 66.8979 96.7611 66.8419 96.7202 66.9134Z" fill="white"/>
<path d="M92.3313 71.3297C92.5219 71.6947 92.8246 71.9735 93.1854 72.1164C93.5462 72.2592 93.9415 72.2568 94.3008 72.1095C94.3734 72.0794 94.3342 71.9543 94.2615 71.9844C93.9271 72.1222 93.5589 72.1245 93.2232 71.9907C92.8875 71.8569 92.6064 71.5959 92.4308 71.2549C92.3925 71.1808 92.2932 71.256 92.3313 71.3297Z" fill="white"/>
<path d="M89.0471 71.7914C89.2459 70.9596 89.7233 70.2406 90.3841 69.7776C90.4496 69.7318 90.3813 69.6228 90.3159 69.6685C89.6291 70.1517 89.1337 70.9011 88.9285 71.7672C88.909 71.8497 89.0277 71.8735 89.0471 71.7914Z" fill="white"/>
<path d="M95.1822 69.0779C95.0816 68.9535 95.0108 68.8037 94.9761 68.6419C94.9413 68.48 94.9438 68.3113 94.9832 68.1507C95.0037 68.0685 94.885 68.0447 94.8646 68.1265C94.8218 68.304 94.8193 68.4904 94.8573 68.6693C94.8954 68.8482 94.9727 69.0142 95.0827 69.1527C95.0921 69.1667 95.106 69.1763 95.1216 69.1795C95.1371 69.1827 95.1532 69.1792 95.1666 69.1699C95.1797 69.1599 95.1887 69.1446 95.1917 69.1274C95.1946 69.1102 95.1912 69.0924 95.1822 69.0779Z" fill="white"/>
<path d="M101.642 51.1657L97.5887 58.6462L97.7427 58.7353L96.3701 61.5893L96.0844 61.4234L95.1824 63.0869L95.4065 63.2282L93.9359 66.0208L93.681 65.8595L80.455 90.2702C80.1081 90.9091 79.5443 91.3709 78.8873 91.5543C78.2303 91.7378 77.5338 91.6278 76.9506 91.2487L52.3629 75.2263C51.7803 74.8459 51.3591 74.2276 51.1919 73.5071C51.0246 72.7865 51.1249 72.0226 51.4707 71.3831L72.6577 32.2786C73.0046 31.6398 73.5684 31.1779 74.2254 30.9945C74.8824 30.8111 75.5789 30.921 76.1621 31.3001L100.75 47.3226C101.332 47.7031 101.753 48.3214 101.92 49.0419C102.088 49.7623 101.988 50.5261 101.642 51.1657Z" fill="#3F3D56"/>
<path d="M77.827 89.7392L53.1526 73.6605C52.973 73.5432 52.8433 73.3526 52.7917 73.1305C52.7402 72.9084 52.7711 72.673 52.8776 72.4758L74.2053 33.1111C74.3122 32.9143 74.486 32.7719 74.6885 32.7154C74.891 32.6589 75.1057 32.6927 75.2855 32.8096L99.9599 48.8883C100.139 49.0056 100.269 49.1962 100.321 49.4183C100.372 49.6404 100.341 49.8758 100.235 50.073L78.9072 89.4376C78.8002 89.6345 78.6264 89.7768 78.4239 89.8334C78.2214 89.8899 78.0067 89.856 77.827 89.7392Z" fill="white"/>
<path d="M87.9625 40.2268C88.0826 40.2268 88.18 40.12 88.18 39.9882C88.18 39.8565 88.0826 39.7497 87.9625 39.7497C87.8424 39.7497 87.745 39.8565 87.745 39.9882C87.745 40.12 87.8424 40.2268 87.9625 40.2268Z" fill="white"/>
<path d="M86.6163 68.4252L66.0194 55.0035C65.9548 54.9617 65.8983 54.9064 65.8533 54.8407C65.8082 54.775 65.7754 54.7002 65.7568 54.6206C65.7381 54.5409 65.734 54.458 65.7447 54.3766C65.7553 54.2952 65.7805 54.217 65.8188 54.1463C65.8571 54.0756 65.9077 54.0139 65.9678 53.9647C66.0279 53.9156 66.0963 53.8799 66.169 53.8598C66.2417 53.8396 66.3173 53.8354 66.3914 53.8474C66.4656 53.8594 66.5369 53.8874 66.6012 53.9296L87.1981 67.3514C87.2627 67.3931 87.3192 67.4484 87.3643 67.5141C87.4093 67.5798 87.4421 67.6546 87.4607 67.7343C87.4794 67.8139 87.4835 67.8968 87.4728 67.9782C87.4622 68.0596 87.437 68.1379 87.3987 68.2085C87.3604 68.2792 87.3098 68.3409 87.2497 68.3901C87.1896 68.4393 87.1212 68.4749 87.0486 68.4951C86.9759 68.5152 86.9003 68.5194 86.8261 68.5074C86.7519 68.4954 86.6806 68.4675 86.6163 68.4252Z" fill="#E6E6E6"/>
<path d="M78.3921 66.3455L71.6172 61.9307C71.5529 61.8888 71.4967 61.8334 71.4519 61.7677C71.4071 61.702 71.3746 61.6273 71.3561 61.5478C71.3377 61.4683 71.3337 61.3856 71.3443 61.3044C71.355 61.2232 71.3802 61.1452 71.4184 61.0746C71.4566 61.0041 71.5071 60.9425 71.567 60.8934C71.6269 60.8443 71.6951 60.8086 71.7676 60.7884C71.8401 60.7682 71.9155 60.7638 71.9895 60.7755C72.0635 60.7873 72.1347 60.8149 72.199 60.8568L78.9739 65.2716C79.0382 65.3135 79.0944 65.3689 79.1392 65.4346C79.1839 65.5002 79.2165 65.575 79.2349 65.6544C79.2534 65.7339 79.2574 65.8166 79.2467 65.8978C79.236 65.979 79.2108 66.0571 79.1726 66.1276C79.1344 66.1981 79.0839 66.2597 79.024 66.3088C78.9641 66.3579 78.896 66.3936 78.8235 66.4138C78.751 66.434 78.6756 66.4384 78.6016 66.4267C78.5276 66.415 78.4564 66.3874 78.3921 66.3455Z" fill="#E6E6E6"/>
<path d="M75.7285 71.2619L68.9536 66.8471C68.8237 66.7624 68.7299 66.6247 68.6926 66.4642C68.6554 66.3037 68.6778 66.1335 68.755 65.9911C68.8321 65.8488 68.9577 65.7458 69.104 65.7049C69.2504 65.6641 69.4055 65.6886 69.5354 65.7732L76.3103 70.188C76.3746 70.2299 76.4307 70.2852 76.4755 70.3509C76.5203 70.4166 76.5528 70.4913 76.5713 70.5708C76.5897 70.6503 76.5937 70.733 76.583 70.8142C76.5724 70.8954 76.5472 70.9734 76.509 71.044C76.4708 71.1145 76.4203 71.176 76.3604 71.2251C76.3005 71.2743 76.2323 71.3099 76.1599 71.3302C76.0874 71.3504 76.012 71.3548 75.938 71.3431C75.8639 71.3313 75.7928 71.3037 75.7285 71.2619Z" fill="#E6E6E6"/>
<path d="M74.3641 73.78L67.5892 69.3652C67.5247 69.3234 67.4684 69.2681 67.4234 69.2024C67.3785 69.1367 67.3458 69.0619 67.3272 68.9824C67.3087 68.9028 67.3046 68.82 67.3152 68.7387C67.3259 68.6573 67.3511 68.5791 67.3893 68.5085C67.4276 68.4379 67.4782 68.3763 67.5382 68.3271C67.5982 68.278 67.6665 68.2423 67.7391 68.2221C67.8117 68.202 67.8872 68.1977 67.9613 68.2096C68.0355 68.2215 68.1067 68.2493 68.171 68.2914L74.9459 72.7062C75.0105 72.7479 75.067 72.8032 75.1121 72.8689C75.1571 72.9346 75.19 73.0094 75.2086 73.0891C75.2272 73.1687 75.2314 73.2516 75.2207 73.333C75.2101 73.4144 75.1849 73.4927 75.1466 73.5634C75.1083 73.6341 75.0576 73.6958 74.9975 73.745C74.9374 73.7941 74.8691 73.8298 74.7964 73.8499C74.7237 73.8701 74.6481 73.8743 74.5739 73.8623C74.4997 73.8503 74.4284 73.8223 74.3641 73.78Z" fill="#E6E6E6"/>
<path d="M80.8785 71.2451L66.5045 61.8785C66.3753 61.7935 66.282 61.6559 66.2452 61.4957C66.2083 61.3355 66.2308 61.1658 66.3077 61.0238C66.3847 60.8818 66.5098 60.779 66.6557 60.7379C66.8016 60.6968 66.9565 60.7208 67.0863 60.8046L81.4603 70.1713C81.525 70.213 81.5814 70.2683 81.6265 70.334C81.6716 70.3997 81.7044 70.4746 81.723 70.5542C81.7417 70.6338 81.7458 70.7167 81.7351 70.7981C81.7245 70.8795 81.6993 70.9578 81.661 71.0285C81.6227 71.0992 81.5721 71.1609 81.512 71.2101C81.4519 71.2593 81.3835 71.2949 81.3108 71.3151C81.2381 71.3352 81.1625 71.3394 81.0883 71.3274C81.0141 71.3154 80.9429 71.2874 80.8785 71.2451Z" fill="#E6E6E6"/>
<path d="M78.1388 83.2157L75.6789 81.6128C75.4584 81.4687 75.2991 81.2346 75.2359 80.9618C75.1727 80.689 75.2109 80.3998 75.342 80.1578C75.4731 79.9159 75.6864 79.7409 75.9351 79.6713C76.1838 79.6017 76.4475 79.6432 76.6683 79.7867L79.1282 81.3897C79.349 81.5336 79.5086 81.7678 79.572 82.0407C79.6353 82.3137 79.5972 82.6031 79.466 82.8452C79.3348 83.0874 79.1213 83.2624 78.8724 83.3319C78.6235 83.4014 78.3596 83.3596 78.1388 83.2157Z" fill="#FA7268"/>
<path d="M82.7285 57.189C85.5132 57.189 87.7707 54.7133 87.7707 51.6593C87.7707 48.6053 85.5132 46.1295 82.7285 46.1295C79.9438 46.1295 77.6863 48.6053 77.6863 51.6593C77.6863 54.7133 79.9438 57.189 82.7285 57.189Z" fill="#FA7268"/>
<path d="M0.0593872 74.1301H68.2946V30.8064C68.2943 30.4818 68.1765 30.1706 67.9672 29.9411C67.7579 29.7116 67.4742 29.5825 67.1782 29.5821H1.17582C0.879828 29.5825 0.596059 29.7116 0.386761 29.9411C0.177463 30.1706 0.059729 30.4818 0.0593872 30.8064V74.1301Z" fill="#CACACA"/>
<path d="M66.1864 31.2755H2.1676V71.1342H66.1864V31.2755Z" fill="white"/>
<path d="M0 72.9578V78.304C-2.20709e-06 78.5257 0.0398006 78.7451 0.117136 78.9499C0.194471 79.1546 0.307825 79.3407 0.450724 79.4974C0.593624 79.6541 0.763272 79.7784 0.949979 79.8633C1.13669 79.9481 1.3368 79.9917 1.53889 79.9917H26.724V90.5426H26.3894C26.3632 90.5426 26.3372 90.5482 26.3129 90.5593C26.2887 90.5703 26.2666 90.5864 26.2481 90.6068C26.2295 90.6271 26.2148 90.6513 26.2047 90.6779C26.1947 90.7045 26.1895 90.733 26.1895 90.7618V91.4957C26.1895 91.5245 26.1947 91.553 26.2047 91.5796C26.2148 91.6062 26.2295 91.6303 26.248 91.6507C26.2666 91.6711 26.2887 91.6872 26.3129 91.6982C26.3372 91.7092 26.3632 91.7149 26.3894 91.7149H42.024C42.0502 91.7149 42.0762 91.7092 42.1005 91.6982C42.1247 91.6872 42.1468 91.6711 42.1653 91.6507C42.1839 91.6303 42.1986 91.6062 42.2087 91.5796C42.2187 91.553 42.2239 91.5245 42.2239 91.4957V90.7618C42.2239 90.733 42.2187 90.7045 42.2087 90.6779C42.1986 90.6513 42.1839 90.6271 42.1653 90.6068C42.1468 90.5864 42.1247 90.5703 42.1005 90.5593C42.0762 90.5482 42.0502 90.5426 42.024 90.5426H41.6894V79.9917H66.8745C67.0766 79.9917 67.2767 79.9481 67.4634 79.8633C67.6501 79.7784 67.8198 79.6541 67.9627 79.4974C68.1056 79.3407 68.2189 79.1546 68.2963 78.9499C68.3736 78.7451 68.4134 78.5257 68.4134 78.304V72.9578L0 72.9578Z" fill="#3F3D56"/>
<path d="M56.9228 44.6057H26.606C26.4149 44.6057 26.2316 44.5225 26.0964 44.3743C25.9613 44.2261 25.8854 44.025 25.8854 43.8154C25.8854 43.6058 25.9613 43.4048 26.0964 43.2566C26.2316 43.1084 26.4149 43.0251 26.606 43.0251H56.9228C57.1139 43.0251 57.2972 43.1084 57.4324 43.2566C57.5675 43.4048 57.6434 43.6058 57.6434 43.8154C57.6434 44.025 57.5675 44.2261 57.4324 44.3743C57.2972 44.5225 57.1139 44.6057 56.9228 44.6057Z" fill="#E6E6E6"/>
<path d="M46.7504 48.1733H36.7783C36.5872 48.1733 36.4039 48.09 36.2688 47.9418C36.1336 47.7936 36.0577 47.5925 36.0577 47.3829C36.0577 47.1733 36.1336 46.9723 36.2688 46.8241C36.4039 46.6759 36.5872 46.5926 36.7783 46.5926H46.7504C46.9415 46.5926 47.1248 46.6759 47.26 46.8241C47.3951 46.9723 47.471 47.1733 47.471 47.3829C47.471 47.5925 47.3951 47.7936 47.26 47.9418C47.1248 48.09 46.9415 48.1733 46.7504 48.1733Z" fill="#E6E6E6"/>
<path d="M46.7504 55.4098H36.7783C36.5872 55.4098 36.4039 55.3265 36.2688 55.1783C36.1336 55.0301 36.0577 54.829 36.0577 54.6194C36.0577 54.4098 36.1336 54.2088 36.2688 54.0606C36.4039 53.9124 36.5872 53.8291 36.7783 53.8291H46.7504C46.9415 53.8291 47.1248 53.9124 47.26 54.0606C47.3951 54.2088 47.471 54.4098 47.471 54.6194C47.471 54.829 47.3951 55.0301 47.26 55.1783C47.1248 55.3265 46.9415 55.4098 46.7504 55.4098Z" fill="#E6E6E6"/>
<path d="M46.7504 59.1162H36.7784C36.6837 59.1162 36.59 59.0958 36.5026 59.0561C36.4152 59.0164 36.3357 58.9581 36.2688 58.8848C36.2019 58.8114 36.1488 58.7243 36.1126 58.6284C36.0764 58.5325 36.0577 58.4297 36.0577 58.3259C36.0577 58.2222 36.0764 58.1194 36.1126 58.0235C36.1488 57.9276 36.2019 57.8405 36.2688 57.7671C36.3357 57.6937 36.4152 57.6355 36.5026 57.5958C36.59 57.5561 36.6837 57.5356 36.7784 57.5356H46.7504C46.845 57.5356 46.9388 57.5561 47.0262 57.5958C47.1136 57.6355 47.193 57.6937 47.26 57.7671C47.3269 57.8405 47.38 57.9276 47.4162 58.0235C47.4524 58.1194 47.471 58.2222 47.471 58.3259C47.471 58.4297 47.4524 58.5325 47.4162 58.6284C47.38 58.7243 47.3269 58.8114 47.26 58.8848C47.193 58.9581 47.1136 59.0164 47.0262 59.0561C46.9388 59.0958 46.845 59.1162 46.7504 59.1162Z" fill="#E6E6E6"/>
<path d="M52.343 51.7407H31.1857C30.9946 51.7407 30.8113 51.6575 30.6762 51.5093C30.541 51.3611 30.4651 51.16 30.4651 50.9504C30.4651 50.7408 30.541 50.5398 30.6762 50.3916C30.8113 50.2434 30.9946 50.1602 31.1857 50.1602H52.343C52.5342 50.1602 52.7175 50.2434 52.8526 50.3916C52.9877 50.5398 53.0637 50.7408 53.0637 50.9504C53.0637 51.16 52.9877 51.3611 52.8526 51.5093C52.7175 51.6575 52.5342 51.7407 52.343 51.7407Z" fill="#E6E6E6"/>
<path d="M56.418 66.705H52.7972C52.4722 66.705 52.1606 66.5634 51.9308 66.3114C51.7009 66.0593 51.5718 65.7175 51.5718 65.3611C51.5718 65.0047 51.7009 64.6628 51.9308 64.4108C52.1606 64.1588 52.4722 64.0172 52.7972 64.0172H56.418C56.743 64.0172 57.0547 64.1588 57.2845 64.4108C57.5143 64.6628 57.6434 65.0047 57.6434 65.3611C57.6434 65.7175 57.5143 66.0593 57.2845 66.3114C57.0547 66.5634 56.743 66.705 56.418 66.705Z" fill="#FA7268"/>
<path d="M17.0727 56.9511C20.5536 56.9511 23.3755 53.8564 23.3755 50.039C23.3755 46.2215 20.5536 43.1268 17.0727 43.1268C13.5918 43.1268 10.77 46.2215 10.77 50.039C10.77 53.8564 13.5918 56.9511 17.0727 56.9511Z" fill="#FA7268"/>
<path d="M90.8277 92H0.166775C0.122629 91.9999 0.0803353 91.9805 0.0491644 91.9463C0.0179935 91.912 0.000488281 91.8655 0.000488281 91.8171C0.000488281 91.7687 0.0179935 91.7223 0.0491644 91.688C0.0803353 91.6537 0.122629 91.6344 0.166775 91.6342H90.8277C90.8718 91.6344 90.9141 91.6537 90.9453 91.688C90.9765 91.7223 90.994 91.7687 90.994 91.8171C90.994 91.8655 90.9765 91.912 90.9453 91.9463C90.9141 91.9805 90.8718 91.9999 90.8277 92Z" fill="#CACACA"/>
<path d="M34.1473 30.4287C34.2785 30.4287 34.3849 30.3121 34.3849 30.1682C34.3849 30.0244 34.2785 29.9077 34.1473 29.9077C34.0161 29.9077 33.9098 30.0244 33.9098 30.1682C33.9098 30.3121 34.0161 30.4287 34.1473 30.4287Z" fill="white"/>
</g>
<defs>
<clipPath id="clip0_65_79">
<rect width="102" height="92" fill="white"/>
</clipPath>
</defs>
</svg>
